<svg xmlns="http://www.w3.org/2000/svg" width="501" height="354.245" viewBox="0 0 501 354.245"><path fill="#001D7E" d="M68.945 108.144v124.571h143.899l-37.973-30.312h-68.286v-94.259zm183.808.052h-16.822l21.985-23.483h33.312z"/><path fill="#D68500" d="M173.871 108.144h37.392v77.77s-.847 16.987 21.569 16.987h33.308s24.484 1.486 24.484-16.654v-77.945h37.806v95.265s-20.005 29.182-39.323 29.182c0 0-15.338.662-34.712.693-17.261.029-36.984.154-41.549-.727-9.493-1.832-36.142-1.666-38.807-31.979l-.168-92.592z"/><path fill="#001D7E" d="M404.876 108.218h-48.717L287.81 232.749h41.472l12.139-20.604h75.945l12.322 20.604h41.472l-66.284-124.531zm-48.408 73.699l23.675-44.47 23.675 44.47h-47.35z"/><path fill="#FFF" d="M457.401 207.322c.401 0 2.2-.783 1.254-.783-.401 0-2.2.783-1.254.783z"/></svg>