<svg xmlns="http://www.w3.org/2000/svg" viewBox="0 0 512 512" width="512" height="512"><path d="M256 448.903c-17.396 0-31.549 14.152-31.549 31.548S238.604 512 256 512s31.549-14.152 31.549-31.548-14.153-31.549-31.549-31.549zM256 497c-9.125 0-16.549-7.423-16.549-16.548s7.424-16.548 16.549-16.548 16.549 7.423 16.549 16.548S265.125 497 256 497zm112.226-280.564c-21.816 0-39.565 17.748-39.565 39.564s17.748 39.564 39.565 39.564c21.816 0 39.564-17.749 39.564-39.564s-17.748-39.564-39.564-39.564zm0 64.128c-13.544 0-24.564-11.02-24.564-24.564s11.019-24.564 24.564-24.564S392.79 242.456 392.79 256s-11.02 24.564-24.564 24.564zm-224.452-64.128c-21.816 0-39.564 17.748-39.564 39.564s17.748 39.564 39.564 39.564 39.564-17.749 39.564-39.564-17.748-39.564-39.564-39.564zm0 64.128c-13.544 0-24.564-11.019-24.564-24.564s11.019-24.564 24.564-24.564 24.564 11.02 24.564 24.564-11.02 24.564-24.564 24.564zM31.549 448.903C14.152 448.903 0 463.056 0 480.452S14.152 512 31.549 512c17.396 0 31.548-14.152 31.548-31.548s-14.153-31.549-31.548-31.549zm0 48.097C22.424 497 15 489.577 15 480.452s7.424-16.548 16.549-16.548 16.548 7.423 16.548 16.548S40.674 497 31.549 497zm448.902-48.097c-17.396 0-31.548 14.152-31.548 31.548S463.056 512 480.451 512C497.848 512 512 497.848 512 480.452s-14.152-31.549-31.549-31.549zm0 48.097c-9.125 0-16.548-7.423-16.548-16.548s7.423-16.548 16.548-16.548S497 471.327 497 480.452 489.576 497 480.451 497zM256 0c-30.656 0-55.597 24.94-55.597 55.597s24.941 55.596 55.597 55.596 55.597-24.94 55.597-55.597S286.656 0 256 0zm0 96.193c-22.385 0-40.597-18.211-40.597-40.597S233.615 15 256 15s40.597 18.211 40.597 40.597S278.385 96.193 256 96.193zm-18.781 332.651l-18.643-35.287a31.473 31.473 0 0 0-27.895-16.812h-.005l-39.402.005v-56.623c0-4.142-3.357-7.5-7.5-7.5s-7.5 3.358-7.5 7.5v56.625l-39.418.005a31.475 31.475 0 0 0-27.892 16.812l-18.637 35.278a7.5 7.5 0 0 0 6.625 11.005 7.502 7.502 0 0 0 6.639-3.998l18.637-35.278a16.509 16.509 0 0 1 14.63-8.818l93.82-.013h.003a16.508 16.508 0 0 1 14.631 8.818l18.643 35.287a7.5 7.5 0 0 0 13.264-7.006zm101.643-232.46l-12.425-23.519a23.479 23.479 0 0 0-20.808-12.54H263.5v-24.567c0-4.142-3.357-7.5-7.5-7.5s-7.5 3.358-7.5 7.5v24.567h-42.128a23.479 23.479 0 0 0-20.808 12.54l-12.425 23.519a7.5 7.5 0 0 0 3.13 10.135 7.497 7.497 0 0 0 10.135-3.128l12.425-23.519a8.51 8.51 0 0 1 7.544-4.547h99.256a8.51 8.51 0 0 1 7.544 4.547l12.425 23.519a7.5 7.5 0 1 0 13.264-7.007zm122.81 232.465l-18.637-35.278a31.477 31.477 0 0 0-27.892-16.812l-39.418-.005v-56.625c0-4.142-3.357-7.5-7.5-7.5s-7.5 3.358-7.5 7.5v56.623l-39.402-.005h-.005a31.475 31.475 0 0 0-27.895 16.812l-18.643 35.287a7.5 7.5 0 0 0 13.264 7.007l18.643-35.287a16.505 16.505 0 0 1 14.631-8.818h.003l93.82.013c6.151 0 11.757 3.38 14.63 8.818l18.637 35.278a7.5 7.5 0 1 0 13.264-7.008z" fill="#2f5572"/></svg>