<svg xmlns="http://www.w3.org/2000/svg" width="64" height="64" viewBox="0 0 512 512"><path fill="none" d="M0 0h64v64H0z"/><g class="currentLayer"><title>Layer 1</title><path d="M440.425 68.993l-4.521 4.884C387.68 26.236 323.802 0 256 0 193.842 0 133.905 22.553 87.231 63.503 31.795 112.145 0 182.307 0 256c0 9.864 7.997 17.86 17.86 17.86s17.86-7.997 17.86-17.86c0-63.411 27.361-123.786 75.069-165.645C150.945 55.123 202.515 35.721 256 35.721c58.419 0 113.453 22.633 154.967 63.727.223.22.461.413.692.619l-5.301 5.727c-6.694 7.232-1.116 18.93 8.717 18.278l32.894-2.177a10.899 10.899 0 0 0 10.173-10.506l1.173-34.627c.343-10.087-12.032-15.178-18.89-7.769z" fill="#d59541"/><path d="M17.86 273.86C7.997 273.86 0 265.864 0 256c0-73.693 31.795-143.855 87.231-192.497C133.905 22.553 193.842 0 256 0v35.721c-53.485 0-105.055 19.402-145.21 54.634C63.082 132.214 35.721 192.589 35.721 256c0 9.864-7.997 17.86-17.861 17.86zM256 512c-62.153 0-122.087-22.549-168.759-63.495-7.416-6.505-8.153-17.789-1.648-25.205 6.506-7.416 17.789-8.153 25.205-1.648 40.154 35.227 91.721 54.627 145.202 54.627 62.833 0 122.841-26.945 164.638-73.929 35.88-40.333 55.641-92.306 55.641-146.35 0-9.864 7.997-17.86 17.86-17.86S512 246.136 512 256c0 62.807-22.969 123.212-64.674 170.094C398.758 480.688 329.022 512 256 512z" fill="#d59541"/><path d="M110.798 421.652a17.99 17.99 0 0 0-2.049-1.529l4.52-4.883c6.694-7.232 1.116-18.93-8.718-18.278l-32.894 2.177a10.899 10.899 0 0 0-10.173 10.506l-1.173 34.627c-.342 10.09 12.033 15.181 18.89 7.773l5.646-6.1a17.96 17.96 0 0 0 2.394 2.56C133.913 489.451 193.847 512 256 512v-35.721c-53.481 0-105.048-19.4-145.202-54.627z" class="selected" fill="#d59541"/><circle cx="256" cy="256" r="161.351" fill="none"/><path d="M256 417.349c-89.111 0-161.349-72.238-161.349-161.349S166.889 94.651 256 94.651v322.698z" fill="none"/><path d="M184.672 312.127l2.372-2.624c8.094-8.958 7.938-22.633-.357-31.405l-1.267-1.341a23.134 23.134 0 0 1-5.626-21.541 23.135 23.135 0 0 0-10.944-25.724l-61.404-36.559C99.21 212.307 94.651 233.621 94.651 256c0 63.517 36.708 118.452 90.061 144.775l-5.677-69.236a23.134 23.134 0 0 1 5.637-19.412zm185.287-170.346l-10.661 11.651a25.737 25.737 0 0 1-17.987 8.342l-48.217 1.872a25.732 25.732 0 0 0-20.875 12.158l-12.359 19.944a25.733 25.733 0 0 0 1.306 29.02l7.676 10.208a44.36 44.36 0 0 1 8.904 26.887l-.163 31.643c-.086 16.666 14.905 29.364 31.33 26.537l35.149-6.049a44.358 44.358 0 0 0 25.132-13.693c11.802-12.838 29.386-17.106 45.029-12.571a162.037 162.037 0 0 0 3.127-31.731c-.001-44.62-18.116-85.01-47.391-114.218zm-104.86 236.768a25.814 25.814 0 0 0-15.011 27.772l1.799 10.977c1.367.035 2.737.052 4.113.052 26.081 0 50.712-6.196 72.513-17.184l-2.748-4.095c-13.287-19.795-38.871-27.185-60.666-17.522zm-78.75-220.041l32.729-18.42a21.535 21.535 0 0 0 10.32-13.508l7.757-30.827c-36.776 4.279-69.778 20.918-94.739 45.662l20.342 15.468a21.53 21.53 0 0 0 23.591 1.625z" fill="#d59541"/></g></svg>