<svg xmlns="http://www.w3.org/2000/svg" viewBox="0 0 512 512" width="64" height="64"><path d="M91 151c-33.091 0-60 26.909-60 60s26.909 60 60 60 60-26.909 60-60-26.909-60-60-60zm165-60c-41.353 0-75 33.647-75 75s33.647 75 75 75 75-33.647 75-75-33.647-75-75-75zm165 60c-33.091 0-60 26.909-60 60s26.909 60 60 60 60-26.909 60-60-26.909-60-60-60zm-91.749 90c-18.939 18.499-44.753 30-73.251 30-28.498 0-54.313-11.501-73.251-30C163.217 260.08 151 286.608 151 316v90c0 8.291 6.709 15 15 15h180c8.291 0 15-6.709 15-15v-90c0-29.392-12.217-55.92-31.749-75zm158.341 30c-16.485 18.279-40.096 30-66.592 30-11.314 0-22.04-2.331-32.023-6.158C390.165 301.776 391 308.802 391 316v90c0 5.284-1.082 10.285-2.763 15H497c8.291 0 15-6.709 15-15v-75c0-23.134-10.016-44.041-24.408-60zM121 406v-90c0-7.198.835-14.224 2.023-21.158C113.04 298.669 102.312 301 91 301c-26.495 0-50.107-11.721-66.592-30C10.016 286.959 0 307.866 0 331v75c0 8.291 6.709 15 15 15h108.763c-1.681-4.715-2.763-9.716-2.763-15z" fill="#d59541"/></svg>