<svg xmlns="http://www.w3.org/2000/svg" viewBox="0 0 512 512" width="64" height="64"><g fill="#d59541"><path d="M415.343 53.646c12.006 4.258 21.7 13.978 25.958 25.984a8.529 8.529 0 0 0 8.038 5.692c.947 0 1.911-.162 2.85-.495 4.437-1.57 6.767-6.451 5.197-10.889-6.033-17.067-19.285-30.327-36.335-36.378-4.446-1.562-9.318.751-10.897 5.188-1.569 4.447.743 9.32 5.189 10.898z"/><path d="M337.246 289.098a8.586 8.586 0 0 0 4.087 1.041 8.56 8.56 0 0 0 4.087-1.041c97.118-52.975 149.513-140.126 149.513-195.226 0-51.763-42.103-93.867-93.867-93.867-36.352 0-69.769 21.291-85.12 54.255-1.997 4.275-.145 9.353 4.122 11.341 4.275 1.997 9.353.137 11.341-4.13 12.57-26.974 39.91-44.399 69.658-44.399 42.351 0 76.8 34.449 76.8 76.8 0 50.099-50.97 129.707-136.533 177.971C255.77 223.579 204.8 143.972 204.8 93.872c0-42.351 34.458-76.8 76.8-76.8 10.692 0 21.035 2.15 30.754 6.4a8.536 8.536 0 0 0 11.238-4.395c1.886-4.318-.085-9.344-4.403-11.238C307.311 2.642 294.664.005 281.6.005c-51.755 0-93.867 42.103-93.867 93.867 0 55.1 52.404 142.251 149.513 195.226zm-226.313 35.174H179.2c9.95 0 26.88 12.698 41.813 23.893 18.722 14.046 36.403 27.307 52.053 27.307h51.2c12.954 0 19.396 5.879 19.567 6.033a8.51 8.51 0 0 0 6.033 2.5 8.522 8.522 0 0 0 6.033-2.5c3.328-3.337 3.328-8.738 0-12.066-1.135-1.126-11.614-11.034-31.633-11.034h-51.2c-9.958 0-26.88-12.698-41.813-23.893-18.731-14.046-36.412-27.307-52.053-27.307h-68.267a8.53 8.53 0 0 0-8.533 8.533 8.53 8.53 0 0 0 8.533 8.534zM42.667 456.539c0-7.057-5.743-12.8-12.8-12.8s-12.8 5.743-12.8 12.8 5.743 12.8 12.8 12.8 12.8-5.743 12.8-12.8z"/><path d="M507.426 358.406c-4.565-7.893-11.921-13.542-20.727-15.898-8.815-2.372-18.014-1.161-25.37 3.123l-98.219 47.804c-15.258 7.637-30.677 7.637-64.444 7.637-33.024 0-83.43-8.337-83.934-8.414-4.651-.76-9.045 2.372-9.822 7.006-.768 4.651 2.372 9.045 7.014 9.822 2.125.358 52.301 8.653 86.741 8.653 35.43 0 53.214 0 71.996-9.395l98.671-48.051c8.132-4.71 18.603-1.911 23.313 6.246 2.278 3.951 2.876 8.55 1.698 12.954s-4.002 8.081-8.192 10.505L370.78 462.206c-.247.154-24.858 15.667-80.649 15.667-48.375 0-123.11-41.182-124.186-41.771-.768-.384-19.277-9.429-55.014-9.429a8.53 8.53 0 0 0-8.533 8.533 8.53 8.53 0 0 0 8.533 8.533c31.036 0 47.019 7.458 47.053 7.458 3.226 1.792 79.343 43.742 132.147 43.742 61.602 0 88.934-17.749 89.839-18.355l114.961-71.552c7.893-4.557 13.542-11.921 15.898-20.719 2.366-8.815 1.154-18.014-3.403-25.907zM59.733 273.072h-51.2c-4.719 0-8.533 3.823-8.533 8.533s3.814 8.533 8.533 8.533h51.2c4.702 0 8.533 3.831 8.533 8.533v187.733c0 4.702-3.831 8.533-8.533 8.533h-51.2A8.53 8.53 0 0 0 0 503.47a8.53 8.53 0 0 0 8.533 8.533h51.2c14.114 0 25.6-11.486 25.6-25.6V298.672c0-14.114-11.486-25.6-25.6-25.6z"/></g></svg>