<?xml version="1.0" encoding="utf-8"?>
<!-- Generator: Adobe Illustrator 16.0.0, SVG Export Plug-In . SVG Version: 6.00 Build 0)  -->
<!DOCTYPE svg PUBLIC "-//W3C//DTD SVG 1.1//EN" "http://www.w3.org/Graphics/SVG/1.1/DTD/svg11.dtd">
<svg version="1.1" id="Layer_1" xmlns="http://www.w3.org/2000/svg" xmlns:xlink="http://www.w3.org/1999/xlink" x="0px" y="0px"
	 width="501px" height="354.245px" viewBox="0 0 501 354.245" enable-background="new 0 0 501 354.245" xml:space="preserve">
<g>
	<g>
		<polygon fill="#001D7E" points="68.945,108.144 68.945,232.715 212.844,232.715 174.871,202.403 106.585,202.403 106.585,108.144 
					"/>
		<polygon fill="#001D7E" points="252.753,108.196 235.931,108.196 257.916,84.713 291.228,84.713 		"/>
		<path fill="#D68500" d="M173.871,108.144h37.392v77.77c0,0-0.847,16.987,21.569,16.987c23.649,0,33.308,0,33.308,0
			s24.484,1.486,24.484-16.654v-77.945h37.806v95.265c0,0-20.005,29.182-39.323,29.182c0,0-15.338,0.662-34.712,0.693
			c-17.261,0.029-36.984,0.154-41.549-0.727c-9.493-1.832-36.142-1.666-38.807-31.979L173.871,108.144z"/>
		<path fill="#001D7E" d="M404.876,108.218h-48.717l-68.349,124.531h41.472l12.139-20.604h75.945l12.322,20.604h41.472
			L404.876,108.218z M356.468,181.917l23.675-44.47l23.675,44.47H356.468z"/>
	</g>
	<g>
		<g>
			<path fill="#FFFFFF" d="M457.401,207.322c0.401,0,2.2-0.783,1.254-0.783C458.254,206.539,456.455,207.322,457.401,207.322
				L457.401,207.322z"/>
		</g>
	</g>
</g>
</svg>
