<?xml version="1.0" encoding="utf-8"?>
<!-- Generator: Adobe Illustrator 16.0.0, SVG Export Plug-In . SVG Version: 6.00 Build 0)  -->
<!DOCTYPE svg PUBLIC "-//W3C//DTD SVG 1.1//EN" "http://www.w3.org/Graphics/SVG/1.1/DTD/svg11.dtd">
<svg version="1.1" id="Layer_1" xmlns="http://www.w3.org/2000/svg" xmlns:xlink="http://www.w3.org/1999/xlink" x="0px" y="0px"
	 width="501px" height="354.245px" viewBox="0 0 501 354.245" enable-background="new 0 0 501 354.245" xml:space="preserve">
<g>
	<g>
		<polygon fill="#001D7E" points="68.945,108.144 68.945,232.715 212.844,232.715 174.871,202.403 106.585,202.403 106.585,108.144 
					"/>
		<polygon fill="#001D7E" points="252.753,108.196 235.931,108.196 257.916,84.713 291.228,84.713 		"/>
		<path fill="#D68500" d="M173.871,108.144h37.392v77.77c0,0-0.847,16.987,21.569,16.987c23.649,0,33.308,0,33.308,0
			s24.484,1.486,24.484-16.654v-77.945h37.806v95.265c0,0-20.005,29.182-39.323,29.182c0,0-15.338,0.662-34.712,0.693
			c-17.261,0.029-36.984,0.154-41.549-0.727c-9.493-1.832-36.142-1.666-38.807-31.979L173.871,108.144z"/>
		<path fill="#001D7E" d="M404.876,108.218h-48.717l-68.349,124.531h41.472l12.139-20.604h75.945l12.322,20.604h41.472
			L404.876,108.218z M356.468,181.917l23.675-44.47l23.675,44.47H356.468z"/>
		<g>
			<path fill="#D68500" d="M140.112,259.711l-0.523,1.123c-0.22,0.516-0.416,0.887-0.591,1.113
				c-0.174,0.227-0.338,0.506-0.494,0.842l-0.542,1.182l-0.484,0.484c-0.078,0.154-0.116,0.258-0.116,0.309
				c0,0.232-0.084,0.539-0.251,0.92c-0.168,0.381-0.297,0.74-0.387,1.074v0.232c0,0.092-0.104,0.291-0.31,0.602v0.232
				c0,0.051-0.11,0.289-0.329,0.715l0.038,0.232c0,0.027-0.013,0.064-0.038,0.117l-0.368,1.143
				c-0.116,0.361-0.178,0.619-0.184,0.773c-0.007,0.154-0.017,0.297-0.029,0.426v0.35l-0.077,0.445l0.039,0.232v0.115
				c0,0.168-0.013,0.303-0.039,0.406c0.077,0.207,0.18,0.35,0.31,0.426c0.052,0,0.09,0.018,0.116,0.049
				c0.026,0.033,0.052,0.049,0.078,0.049l0.542-0.35c0.374-0.219,0.646-0.451,0.813-0.695l0.562-0.504l0.116-0.174l0.233-0.039
				c0.103-0.104,0.222-0.246,0.358-0.426c0.135-0.182,0.229-0.271,0.281-0.271c0.026,0,0.051,0.014,0.078,0.039h0.271
				c0.078,0,0.142,0.012,0.194,0.039l0.039-0.078v-0.33c0-0.426,0.136-0.639,0.407-0.639c0.143-0.219,0.316-0.426,0.524-0.619
				l0.077-0.291c0.026-0.102,0.165-0.27,0.417-0.502c0.251-0.232,0.468-0.523,0.649-0.871l0.678-0.795
				c0.025-0.051,0.064-0.148,0.116-0.291l0.155-0.154l0.329,0.039c0.052-0.025,0.078-0.078,0.078-0.154
				c0-0.025-0.013-0.064-0.039-0.117c-0.026-0.051-0.039-0.129-0.039-0.232c0-0.115,0.19-0.422,0.571-0.92
				c0.381-0.496,0.624-0.863,0.727-1.104c0.104-0.238,0.207-0.357,0.311-0.357c0.051,0,0.094,0.045,0.125,0.135
				c0.032,0.092,0.087,0.137,0.166,0.137c0.025,0,0.038-0.014,0.038-0.039s-0.02-0.051-0.058-0.078
				c-0.039-0.025-0.058-0.064-0.058-0.115c0-0.271,0.09-0.545,0.271-0.824c0.181-0.277,0.3-0.492,0.358-0.648
				c0.058-0.154,0.113-0.268,0.165-0.338s0.11-0.178,0.174-0.32c0.065-0.141,0.142-0.252,0.232-0.328
				c0.09-0.078,0.165-0.166,0.223-0.262c0.058-0.098,0.132-0.172,0.223-0.223s0.174-0.238,0.252-0.561
				c0.077-0.324,0.355-0.691,0.833-1.105c-0.078-0.076-0.116-0.154-0.116-0.23c0-0.053,0.038-0.143,0.116-0.271
				c0-0.09,0.229-0.568,0.688-1.434c0.458-0.863,0.836-1.529,1.134-1.994l0.078-0.271l0.251-0.232l0.349-0.521l1.065-0.717
				c0.284-0.182,0.484-0.271,0.6-0.271c0.129,0,0.232,0.014,0.31,0.039c0.09-0.078,0.161-0.115,0.213-0.115
				c0.026,0,0.078,0.012,0.155,0.037h0.077c0.129-0.076,0.219-0.115,0.271-0.115c0.051,0,0.123,0.025,0.213,0.078h0.116
				c0.128,0,0.332,0.1,0.609,0.299c0.277,0.201,0.416,0.352,0.416,0.455l-0.038,0.232l0.038,0.232c0,0.4-0.152,0.797-0.455,1.191
				c-0.304,0.393-0.481,0.635-0.533,0.725l-0.251,0.117c-0.013,0.039-0.029,0.139-0.048,0.301c-0.02,0.16-0.074,0.289-0.165,0.387
				c-0.09,0.096-0.194,0.281-0.31,0.551c-0.116,0.271-0.22,0.465-0.31,0.582v0.271l-0.91,2.188
				c-0.052,0.154-0.113,0.293-0.185,0.416c-0.071,0.123-0.177,0.184-0.319,0.184c0.039,0.064,0.087,0.119,0.146,0.164
				s0.087,0.107,0.087,0.184c0,0.35-0.187,0.576-0.562,0.678c0.078,0.104,0.116,0.195,0.116,0.271l0.097,0.213l-0.368,0.658v0.33
				c-0.09,0.115-0.181,0.297-0.271,0.541v0.33c0,0.064-0.078,0.232-0.233,0.504l-0.175,0.328c-0.052,0.117-0.091,0.221-0.116,0.311
				h-0.039l0.039,0.406c-0.026,0.025-0.104,0.09-0.233,0.193v0.387c-0.129,0.117-0.194,0.291-0.194,0.523
				c0,0.104-0.071,0.264-0.214,0.484c0.026,0.104,0.039,0.168,0.039,0.193c0,0.311-0.052,0.59-0.155,0.842
				c-0.104,0.252-0.156,0.416-0.156,0.494v0.291c0.078,0.076,0.117,0.154,0.117,0.232c0,0.025-0.02,0.1-0.058,0.223
				c-0.039,0.121-0.059,0.234-0.059,0.338c0,0.387,0.078,0.58,0.234,0.58l0.446-0.135c0.155-0.051,0.266-0.139,0.33-0.262
				c0.065-0.123,0.172-0.215,0.32-0.281c0.149-0.064,0.23-0.164,0.243-0.299c0.013-0.137,0.139-0.232,0.378-0.291
				c0.239-0.059,0.752-0.48,1.539-1.268l0.601-0.35l0.155-0.27c0.103-0.104,0.274-0.305,0.513-0.602s0.429-0.445,0.571-0.445
				c0.387,0,0.581,0.213,0.581,0.639c0,0.066-0.061,0.316-0.184,0.756c-0.123,0.439-0.21,0.684-0.261,0.736
				c-0.052,0.051-0.129,0.113-0.232,0.184c-0.104,0.07-0.207,0.217-0.31,0.436c-0.594,0.58-1.033,0.91-1.317,0.986
				c-0.078,0.053-0.22,0.172-0.426,0.359c-0.207,0.188-0.378,0.318-0.513,0.396c-0.136,0.078-0.275,0.182-0.417,0.311
				c-0.143,0.129-0.31,0.225-0.503,0.289l-0.155,0.078c-0.052-0.025-0.09-0.039-0.116-0.039c-0.078,0-0.165,0.059-0.262,0.174
				c-0.097,0.117-0.243,0.207-0.437,0.271s-0.347,0.145-0.457,0.242s-0.191,0.145-0.243,0.145l-0.312-0.135
				c-0.155,0.143-0.252,0.213-0.291,0.213l-0.233-0.115c-0.026-0.039-0.097-0.078-0.213-0.117c-0.117-0.039-0.224-0.096-0.321-0.174
				c-0.097-0.078-0.229-0.168-0.398-0.271c-0.168-0.104-0.323-0.342-0.464-0.717l-0.155-0.193c-0.129-0.219-0.193-0.354-0.193-0.406
				c0-0.078,0.013-0.232,0.039-0.465v-0.115c0-0.117-0.026-0.301-0.078-0.553c-0.051-0.252-0.077-0.441-0.077-0.57l0.465-2.576
				l-0.078-0.465c0-0.193,0.081-0.455,0.242-0.783c0.162-0.33,0.319-1.063,0.474-2.197c-0.207,0.633-0.362,0.949-0.465,0.949
				l-0.291-0.039c-0.052,0.025-0.078,0.076-0.078,0.154c0,0.053,0.025,0.162,0.078,0.33v0.27c0,0.246-0.239,0.445-0.717,0.602
				c0,0.025-0.013,0.064-0.039,0.115c0.143,0.064,0.213,0.129,0.213,0.193c0,0.297-0.12,0.529-0.358,0.697s-0.397,0.313-0.475,0.436
				s-0.148,0.184-0.213,0.184l-0.116-0.174h-0.039l-0.193,0.369c0.077,0.102,0.116,0.166,0.116,0.193
				c0,0.051-0.133,0.277-0.397,0.678c-0.265,0.398-0.423,0.6-0.474,0.6l-0.562,0.541l-0.078,0.176v0.193
				c0,0.025-0.026,0.076-0.078,0.154l-0.755,1.064l-0.233,0.445l-0.794,1.182c-0.129,0.039-0.271,0.135-0.426,0.291l-0.135,0.076
				c0,0.207-0.168,0.4-0.504,0.582c-0.116,0.348-0.278,0.586-0.484,0.715c-0.207,0.131-0.362,0.252-0.465,0.369l-0.368,0.232
				l-0.465,0.387l-0.523,0.174l-0.232-0.174c-0.104,0.297-0.194,0.445-0.271,0.445l-0.445-0.078l-0.368,0.078
				c-0.31,0-0.714-0.207-1.21-0.619c-0.497-0.414-0.791-0.684-0.881-0.814l-0.232-0.309c-0.065-0.051-0.116-0.133-0.155-0.242
				c-0.039-0.109-0.162-0.242-0.368-0.396l-0.194-0.311v-0.252c-0.31-0.451-0.481-0.744-0.513-0.881
				c-0.032-0.135-0.048-0.436-0.048-0.9v-0.154l0.077-0.271l-0.039-0.445c0-0.207,0.062-0.496,0.184-0.871
				c0.122-0.375,0.184-0.588,0.184-0.639v-0.115l-0.059-0.117l0.252-0.813c0.077-0.285,0.142-0.459,0.193-0.523
				s0.09-0.287,0.117-0.668c0.025-0.381,0.213-0.57,0.561-0.57c0.026,0,0.064,0.012,0.116,0.037
				c0.104-0.025,0.155-0.102,0.155-0.232h-0.078c-0.104,0-0.155-0.07-0.155-0.213c0-0.18,0.039-0.322,0.117-0.426
				c0.077-0.102,0.116-0.252,0.116-0.445c0-0.232,0.106-0.467,0.319-0.705c0.213-0.24,0.319-0.371,0.319-0.398
				c0-0.193,0.1-0.475,0.3-0.842c0.2-0.367,0.361-0.699,0.483-0.996c0.123-0.297,0.268-0.563,0.436-0.795
				c0.167-0.232,0.291-0.457,0.368-0.678c0.078-0.219,0.233-0.438,0.465-0.658l0.213-0.387c0.155-0.246,0.297-0.445,0.426-0.6
				c0.129-0.156,0.209-0.346,0.242-0.572c0.032-0.225,0.145-0.383,0.339-0.475c0.194-0.09,0.303-0.203,0.329-0.338
				c0.026-0.137,0.074-0.268,0.145-0.396c0.071-0.129,0.119-0.256,0.146-0.379c0.025-0.121,0.103-0.262,0.232-0.416
				c0.129-0.154,0.248-0.391,0.358-0.707c0.109-0.316,0.268-0.475,0.475-0.475l0.387,0.039l0.039-0.135
				c0-0.025-0.033-0.078-0.097-0.154c-0.064-0.078-0.097-0.156-0.097-0.232c0-0.375,0.123-0.563,0.368-0.563
				c0.078,0,0.167,0.084,0.271,0.252c0.09-0.762,0.146-1.164,0.165-1.211c0.02-0.045,0.029-0.092,0.029-0.145l0.039-0.193
				c0.025-0.051,0.039-0.123,0.039-0.213s-0.048-0.207-0.145-0.35c-0.097-0.141-0.178-0.211-0.242-0.211
				c-0.013,0-0.162,0.031-0.445,0.096l-0.232-0.232c-0.129,0.285-0.258,0.426-0.387,0.426l-0.329-0.115
				c-0.452,0.283-0.743,0.426-0.872,0.426l-0.31-0.117h-0.039c-0.078,0-0.158,0.094-0.242,0.281
				c-0.084,0.188-0.255,0.281-0.513,0.281h-0.194c-0.193,0.232-0.355,0.365-0.484,0.396c-0.129,0.033-0.269,0.113-0.417,0.242
				c-0.148,0.129-0.274,0.213-0.377,0.252c-0.104,0.039-0.278,0.168-0.523,0.387l-0.193,0.117c-0.232,0.141-0.361,0.279-0.387,0.416
				c-0.026,0.135-0.097,0.26-0.213,0.377c-0.464,0.336-0.697,0.613-0.697,0.832l0.039,0.35l-0.039,0.502
				c0,0.143-0.12,0.314-0.358,0.514c-0.239,0.201-0.436,0.301-0.59,0.301c-0.929,0-1.394-0.277-1.394-0.834l0.078-0.561
				l-0.039-0.445l0.039-0.387c0-0.297,0.177-0.578,0.533-0.842c0.355-0.266,0.597-0.463,0.727-0.592l0.755-0.387
				c0.168-0.129,0.297-0.262,0.388-0.396c0.09-0.137,0.375-0.303,0.853-0.504c0.478-0.199,0.827-0.396,1.047-0.59
				c0.219-0.193,0.542-0.365,0.969-0.514s0.752-0.281,0.979-0.396c0.226-0.117,0.365-0.174,0.416-0.174l0.232,0.037
				c0.129-0.051,0.268-0.131,0.416-0.242c0.148-0.109,0.313-0.164,0.494-0.164l2.381-0.541c0.245-0.064,0.709,0.076,1.394,0.426
				c0.684,0.348,1.026,1.115,1.026,2.303c0,0.246-0.197,0.775-0.59,1.588c-0.394,0.813-0.83,1.537-1.307,2.168l-0.116,0.291
				l-0.522,0.91l-0.31,0.678c-0.142,0.258-0.29,0.561-0.445,0.91l-0.349,0.465C140.241,259.336,140.151,259.543,140.112,259.711z"/>
			<path fill="#D68500" d="M169.085,270.805h0.077l0.195,0.078c0.025,0,0.051-0.014,0.077-0.039c0-0.219,0.104-0.406,0.311-0.563
				c0.065-0.244,0.21-0.432,0.437-0.561c0.226-0.129,0.585-0.342,1.077-0.639l0.485-0.426l0.233-0.117l0.155-0.193
				c0.143-0.168,0.279-0.252,0.408-0.252c0.194,0,0.291,0.072,0.291,0.213l-0.174,0.389l0.078,0.639
				c0,0.232-0.081,0.438-0.242,0.619s-0.411,0.445-0.746,0.793l-0.989,1.047l-0.523,0.27c-0.129,0.078-0.246,0.168-0.349,0.271
				l-0.756,0.639c0,0.182-0.058,0.316-0.174,0.406h-0.311l-0.155,0.078c-0.09,0.246-0.356,0.484-0.795,0.717l-0.271,0.193
				c-0.091,0.078-0.174,0.117-0.252,0.117l-0.543-0.078l-0.368,0.078c-0.104,0-0.243-0.053-0.417-0.156
				c-0.175-0.104-0.352-0.184-0.533-0.242c-0.181-0.057-0.411-0.297-0.688-0.715c-0.278-0.42-0.43-0.695-0.455-0.824
				c0-0.051-0.03-0.139-0.088-0.262c-0.058-0.121-0.087-0.195-0.087-0.223c0-0.025,0.059-0.154,0.175-0.387v-0.039
				c0-0.037-0.036-0.129-0.107-0.27c-0.071-0.143-0.106-0.316-0.106-0.523c0-0.117-0.039-0.264-0.116-0.445
				c0.103-0.104,0.155-0.182,0.155-0.232s-0.019-0.125-0.058-0.223c-0.039-0.098-0.059-0.172-0.059-0.223l0.116-0.949l-0.077-0.484
				l0.039-0.463c0-0.271-0.116-0.408-0.347-0.408c-0.103,0-0.231,0.072-0.386,0.213l-0.135,0.039
				c-0.348,0.168-0.592,0.307-0.734,0.416c-0.141,0.111-0.289,0.166-0.443,0.166c-0.077,0.076-0.225,0.148-0.444,0.213l-0.154,0.115
				c-0.052,0.053-0.155,0.129-0.309,0.232c0,0.039-0.241,0.256-0.724,0.648c-0.482,0.395-0.917,0.766-1.303,1.113
				c-0.386,0.35-0.665,0.539-0.839,0.572c-0.173,0.031-0.26,0.195-0.26,0.492c0,0.053-0.116,0.156-0.347,0.311
				c-0.026,0-0.161,0.143-0.405,0.426c-0.206-0.154-0.322-0.232-0.348-0.232c-0.168,0-0.292,0.213-0.369,0.639
				c-0.078,0.168-0.284,0.271-0.621,0.311c-0.026,0.014-0.071,0.109-0.136,0.289l-0.078,0.078h-0.194
				c-0.026,0-0.117,0.074-0.271,0.223c-0.156,0.148-0.292,0.242-0.408,0.281c-0.168,0.348-0.311,0.523-0.427,0.523
				c-0.052,0-0.126-0.027-0.223-0.078c-0.097-0.051-0.217-0.098-0.359-0.137c-0.143-0.037-0.3-0.195-0.475-0.473
				s-0.261-0.514-0.261-0.707c0-1.434,0.277-2.215,0.833-2.344l0.039-0.076v-0.156c0-0.166,0.074-0.287,0.223-0.357
				s0.3-0.213,0.455-0.426s0.258-0.332,0.31-0.357h0.251c0.051,0,0.078-0.137,0.078-0.408c0-0.076,0.032-0.146,0.097-0.213
				c0.064-0.064,0.103-0.158,0.116-0.279c0.013-0.123,0.106-0.322,0.281-0.602c0.174-0.277,0.261-0.441,0.261-0.492l-0.039-0.078
				c-0.323,0.297-0.555,0.459-0.697,0.484c-0.142,0.025-0.335,0.213-0.581,0.561l-0.31-0.059c-0.542,0.4-0.878,0.627-1.008,0.678
				c-0.129,0.053-0.272,0.201-0.427,0.445c0,0.078-0.045,0.131-0.136,0.156c-0.091,0.025-0.259,0.129-0.504,0.309h-0.117
				c-0.324,0-0.486-0.232-0.486-0.697l0.406-1.104c0.116-0.348,0.39-0.641,0.822-0.881c0.432-0.238,0.796-0.467,1.093-0.688
				c0.296-0.219,0.593-0.334,0.89-0.348l0.135-0.193c0.438-0.168,0.735-0.432,0.89-0.795c0.155-0.359,0.368-0.541,0.639-0.541
				c0.709,0,1.251,0.262,1.625,0.783c0.374,0.523,0.561,0.939,0.561,1.25l0.039,0.521c0,0.182-0.039,0.434-0.116,0.756
				c-0.155,0.232-0.232,0.406-0.232,0.523c0,0.104,0.064,0.154,0.193,0.154c0.077,0,0.18-0.055,0.309-0.164
				c0.128-0.109,0.274-0.211,0.436-0.301c0.161-0.09,0.254-0.168,0.281-0.232c0.129-0.309,0.354-0.521,0.677-0.639
				c0.322-0.117,0.522-0.213,0.6-0.291l0.193-0.154l0.155-0.291c0.348-0.154,0.58-0.297,0.696-0.426
				c0.116-0.129,0.271-0.213,0.464-0.252c0.194-0.039,0.414-0.154,0.658-0.348l0.29-0.078l0.271-0.154
				c0.026-0.025,0.103-0.059,0.232-0.098c0.129-0.037,0.319-0.105,0.571-0.203c0.251-0.096,0.422-0.145,0.513-0.145
				c0.657,0,1.176,0.266,1.557,0.793c0.38,0.529,0.571,0.957,0.571,1.279l-0.039,0.348l0.078,0.523v0.076l-0.154,1.066l0.038,0.367
				c0,0.607-0.129,1.025-0.387,1.258c-0.065,0.027-0.097,0.092-0.097,0.193v0.176l0.387,0.813c0.116,0.283,0.207,0.426,0.271,0.426
				l0.621-0.174c0.181-0.051,0.33-0.188,0.446-0.406c0.104-0.053,0.284-0.207,0.543-0.465
				C168.794,270.909,168.917,270.805,169.085,270.805z"/>
			<path fill="#D68500" d="M184.434,270.012v-0.137c0-0.18,0.013-0.322,0.039-0.426c-0.078-0.205-0.116-0.393-0.116-0.561
				c0-0.025,0.064-0.207,0.193-0.543l0.174-0.6c0.09-0.232,0.142-0.355,0.155-0.367c-0.078-0.207-0.117-0.324-0.117-0.35
				c0-0.297,0.084-0.541,0.251-0.736c0.168-0.193,0.31-0.465,0.426-0.813l0.387-1.182l0.639-1.549
				c0.013-0.037,0.074-0.141,0.183-0.309c0.11-0.168,0.2-0.313,0.271-0.436s0.171-0.301,0.3-0.533l0.194-0.039
				c0.051-0.051,0.077-0.104,0.077-0.154c0-0.025-0.026-0.129-0.077-0.311l0.677-1.123l0.407-0.832
				c0.129-0.219,0.271-0.361,0.426-0.426c0.258-0.477,0.484-0.768,0.678-0.871c0.078-0.244,0.22-0.51,0.426-0.793l0.368-0.039
				c0.064-0.182,0.129-0.316,0.194-0.406l0.039-0.389c0,0.078,0.032,0.055,0.097-0.066c0.064-0.123,0.162-0.352,0.291-0.688
				l0.523-0.602l0.154-0.27c0.064-0.092,0.168-0.266,0.31-0.523c0.194-0.078,0.355-0.219,0.484-0.426l0.407-0.33
				c-0.026-0.141,0.129-0.457,0.464-0.947c0.22-0.09,0.419-0.207,0.601-0.35l0.271-0.076c0-0.453,0.162-0.762,0.484-0.93
				l0.232-0.156c0.206-0.102,0.322-0.154,0.348-0.154l0.136-0.039c0.155-0.051,0.335-0.076,0.542-0.076
				c0.477,0,0.91,0.178,1.297,0.531c0.387,0.355,0.581,0.76,0.581,1.211c0,0.18-0.097,0.367-0.291,0.561l-0.078,0.156
				c-0.18,0.709-0.31,1.064-0.387,1.064c-0.052,0-0.123,0.039-0.213,0.115c-0.026,0.426-0.052,0.666-0.078,0.717
				c-0.232,0.039-0.348,0.33-0.348,0.871c-0.026,0.078-0.119,0.211-0.281,0.396c-0.162,0.188-0.287,0.445-0.377,0.775
				c-0.09,0.328-0.187,0.494-0.291,0.494h-0.213l0.058,0.289c0,0.182-0.087,0.359-0.262,0.533c-0.174,0.174-0.28,0.357-0.319,0.551
				c-0.039,0.195-0.194,0.428-0.464,0.697l-0.194,0.311c-0.078,0.129-0.181,0.264-0.31,0.406c-0.129,0.143-0.239,0.361-0.329,0.658
				l-0.503,0.93c-0.349,0.633-0.613,0.936-0.794,0.91c-0.116,0.504-0.193,0.793-0.232,0.871c-0.039,0.078-0.129,0.148-0.271,0.213
				c-0.141,0.064-0.251,0.178-0.329,0.338c-0.078,0.162-0.162,0.281-0.252,0.359l-0.348,0.717c-0.207,0.09-0.355,0.258-0.445,0.502
				c-0.207,0.053-0.336,0.227-0.388,0.523c-0.051,0.053-0.116,0.168-0.193,0.348l-0.678,0.678c-0.349,0.246-0.536,0.527-0.561,0.844
				c-0.026,0.316-0.194,0.473-0.504,0.473c-0.219,0-0.542-0.096-0.968-0.289h-0.039c-0.039,0.18-0.129,0.381-0.271,0.6l0.077,0.523
				c0,0.064-0.103,0.471-0.31,1.219c0.104,0.193,0.155,0.33,0.155,0.406l-0.039,0.428l0.097,0.521
				c0.064,0.426,0.219,0.639,0.464,0.639l0.465,0.078c0.025,0,0.187-0.098,0.483-0.291l0.716-0.387c0.025,0,0.039,0.014,0.039,0.039
				c0.128,0.051,0.231,0.076,0.309,0.076c0.129,0,0.194-0.102,0.194-0.309v-0.252c0.078-0.129,0.171-0.207,0.28-0.232
				c0.11-0.025,0.21-0.084,0.3-0.174s0.161-0.137,0.212-0.137h0.194c0.193,0,0.29-0.225,0.29-0.678
				c0.051-0.025,0.116-0.076,0.193-0.154h0.232c0.103,0,0.216-0.125,0.338-0.377s0.209-0.404,0.261-0.455
				c0.232-0.025,0.394-0.064,0.484-0.117c0.413-0.748,0.729-1.121,0.948-1.121h0.116c0.219-0.207,0.339-0.391,0.358-0.553
				c0.02-0.162,0.084-0.268,0.194-0.32c0.109-0.051,0.209-0.115,0.3-0.193c0.09-0.076,0.148-0.115,0.174-0.115
				c0.193,0,0.29,0.07,0.29,0.213l-0.059,0.541l0.136,0.582c0,0.051-0.055,0.15-0.165,0.299c-0.109,0.148-0.164,0.314-0.164,0.494
				c0,0.375-0.064,0.574-0.193,0.602c-0.129,0.025-0.235,0.111-0.319,0.26s-0.223,0.285-0.416,0.408
				c-0.194,0.121-0.342,0.299-0.445,0.531l-0.33,0.078l-0.193,0.115c-0.155,0.4-0.32,0.646-0.494,0.736
				c-0.174,0.09-0.39,0.361-0.647,0.813c-0.039,0-0.058,0.014-0.058,0.039l-0.31-0.039c-0.116,0.207-0.232,0.33-0.349,0.369
				c-0.116,0.037-0.213,0.113-0.29,0.223c-0.078,0.109-0.216,0.203-0.416,0.279c-0.2,0.078-0.326,0.168-0.377,0.271
				c-0.052,0.104-0.129,0.162-0.232,0.174c-0.104,0.014-0.2,0.063-0.291,0.146c-0.09,0.084-0.167,0.125-0.232,0.125
				c-0.026,0-0.116-0.012-0.271-0.039h-0.077c-0.22,0.156-0.4,0.232-0.542,0.232c-0.168,0-0.291,0.027-0.368,0.078
				c-0.078-0.051-0.197-0.09-0.358-0.117c-0.161-0.025-0.345-0.09-0.551-0.193c-0.219,0.053-0.355,0.078-0.407,0.078
				c-0.219,0-0.496-0.217-0.832-0.648s-0.503-0.855-0.503-1.268c0-0.014-0.074-0.113-0.223-0.301s-0.222-0.391-0.222-0.609v-0.193
				l0.039-0.232v-0.369l0.039-0.115c0.194-0.025,0.291-0.053,0.291-0.078L184.434,270.012z M188.363,264.881l0.406-0.232
				c0.051-0.207,0.219-0.455,0.504-0.746c0.283-0.291,0.483-0.436,0.6-0.436h0.155c0-0.09,0.019-0.18,0.058-0.271
				c0.039-0.09,0.058-0.213,0.058-0.367c0-0.078,0.174-0.291,0.522-0.639l0.155-0.35c0.116-0.334,0.407-0.611,0.871-0.832
				c0.181-0.375,0.317-0.561,0.407-0.561l0.154-0.039c0.052-0.193,0.155-0.367,0.31-0.523l0.077-0.115v-0.311
				c0-0.025,0.087-0.131,0.262-0.318s0.3-0.361,0.378-0.523c0.077-0.162,0.183-0.287,0.319-0.377s0.229-0.252,0.281-0.484
				l0.31-0.039c0-0.168,0.013-0.277,0.039-0.33l0.039-0.193c0.064-0.154,0.291-0.561,0.678-1.219l0.31-0.717
				c0-0.078,0.055-0.17,0.165-0.281c0.109-0.109,0.165-0.268,0.165-0.475l0.155-0.639c0-0.297-0.052-0.445-0.155-0.445
				c-0.129,0.092-0.249,0.156-0.358,0.193c-0.11,0.039-0.216,0.271-0.32,0.697c-0.386,0.092-0.609,0.275-0.668,0.553
				c-0.058,0.277-0.216,0.512-0.474,0.707l-0.135,0.232c-0.026,0.141-0.149,0.289-0.368,0.445c-0.219,0.154-0.426,0.418-0.62,0.793
				c-0.645,0.891-1,1.369-1.064,1.434l-0.194,0.232l-0.291-0.039c0.052,0.207,0.078,0.322,0.078,0.348
				c0,0.078-0.039,0.152-0.116,0.223c-0.078,0.072-0.135,0.158-0.174,0.262c-0.039,0.104-0.116,0.223-0.232,0.357
				c-0.117,0.137-0.223,0.355-0.32,0.658c-0.097,0.305-0.184,0.482-0.261,0.533l-0.271-0.039c-0.168,0.104-0.252,0.207-0.252,0.311
				l0.058,0.271c0,0.051-0.036,0.111-0.106,0.184c-0.071,0.07-0.139,0.209-0.203,0.416c-0.065,0.207-0.226,0.52-0.484,0.939
				c-0.258,0.418-0.461,0.863-0.61,1.336c-0.148,0.471-0.293,0.771-0.436,0.9c0.026,0.025,0.064,0.037,0.116,0.037
				C188.046,265.403,188.208,265.229,188.363,264.881z"/>
			<path fill="#D68500" d="M195.684,266.721l0.407-0.33c0.309-0.025,0.477-0.188,0.502-0.484c0.026-0.297,0.239-0.555,0.639-0.773
				l0.232-0.33c0.193-0.193,0.722-0.445,1.586-0.754c0.219-0.129,0.368-0.246,0.445-0.35c0.026-0.025,0.052-0.039,0.077-0.039
				l0.31,0.078c0.168,0,0.384-0.045,0.648-0.137c0.264-0.09,0.519-0.135,0.765-0.135l0.812-0.039c0.052,0,0.158,0.039,0.319,0.117
				c0.161,0.076,0.357,0.115,0.59,0.115c0.284,0,0.545,0.129,0.784,0.389c0.239,0.258,0.358,0.496,0.358,0.715
				c0,0.4-0.206,0.807-0.619,1.221c-0.412,0.412-0.741,0.645-0.985,0.697c-0.219,0.219-0.387,0.357-0.502,0.416
				c-0.116,0.059-0.235,0.148-0.357,0.271c-0.123,0.121-0.223,0.184-0.3,0.184c-0.052,0-0.09-0.016-0.116-0.049
				s-0.064-0.049-0.116-0.049c-0.206,0-0.432,0.252-0.676,0.756l-0.348-0.039c-0.219,0.143-0.361,0.297-0.426,0.465
				c-0.064,0.168-0.199,0.252-0.405,0.252c-0.477,0.477-0.799,0.717-0.966,0.717c-0.026,0-0.116-0.027-0.271-0.078
				c-0.104,0.129-0.155,0.264-0.155,0.406c0,0.154-0.104,0.246-0.31,0.271l-0.251,0.232l-0.193-0.039l-0.387,0.406
				c-0.194,0-0.393,0.064-0.599,0.193c-0.026,0.156-0.064,0.352-0.116,0.592c-0.052,0.238-0.077,0.371-0.077,0.396
				c0,0.375,0.341,0.561,1.026,0.561l0.929-0.135c0.245,0,0.474-0.064,0.688-0.193c0.213-0.129,0.442-0.193,0.688-0.193
				c0.078,0,0.193-0.027,0.349-0.078l0.193,0.078c0.09-0.193,0.258-0.369,0.504-0.523c0.245-0.154,0.438-0.232,0.581-0.232
				l0.194-0.115c0.051-0.156,0.129-0.26,0.232-0.311l0.155-0.135c0.103-0.104,0.2-0.156,0.291-0.156h0.271l0.078-0.039
				c0.155-0.334,0.371-0.531,0.648-0.59s0.452-0.152,0.523-0.281c0.07-0.129,0.197-0.205,0.378-0.232
				c0.18-0.025,0.332-0.111,0.455-0.26s0.274-0.287,0.455-0.418c0.181-0.129,0.307-0.225,0.378-0.289
				c0.07-0.064,0.131-0.098,0.183-0.098c0.078,0,0.116,0.059,0.116,0.174c0,0.117,0.026,0.176,0.077,0.176
				c0.052,0,0.078-0.025,0.078-0.078c0-0.051-0.013-0.117-0.039-0.193v-0.137c0-0.193,0.103-0.322,0.31-0.387l0.871-0.561
				c0.026-0.271,0.1-0.43,0.223-0.475c0.123-0.045,0.216-0.098,0.281-0.156c0.064-0.057,0.135-0.086,0.213-0.086
				c0.167,0,0.251,0.098,0.251,0.291l-0.097,0.502l0.097,0.523c0,0.078-0.062,0.184-0.184,0.32
				c-0.123,0.135-0.216,0.342-0.281,0.619c-0.065,0.277-0.148,0.43-0.252,0.455h-0.116c-0.233,0.244-0.417,0.391-0.552,0.436
				c-0.135,0.045-0.243,0.125-0.32,0.242l-0.658,0.754c-0.129,0.129-0.24,0.246-0.33,0.35c-0.09,0.104-0.162,0.154-0.213,0.154
				l-0.155-0.154c0-0.025-0.026-0.039-0.078-0.039c-0.129,0-0.21,0.078-0.242,0.232c-0.033,0.154-0.1,0.291-0.203,0.406
				c-0.388,0.182-0.64,0.348-0.756,0.504l-0.116,0.039h-0.349c-0.168,0-0.284,0.125-0.348,0.377
				c-0.065,0.252-0.249,0.396-0.553,0.436s-0.52,0.115-0.649,0.232c-0.026,0.025-0.084,0.051-0.175,0.076
				c-0.09,0.027-0.271,0.131-0.542,0.311l-1.628,0.58c-0.129,0.066-0.213,0.098-0.252,0.098l-0.542,0.078
				c-0.079,0-0.156-0.053-0.233-0.156c-0.078-0.102-0.129-0.154-0.155-0.154l-0.349,0.117c-0.258,0.076-0.504,0.115-0.736,0.115
				c-0.129,0-0.271-0.045-0.426-0.135s-0.278-0.156-0.368-0.193c-0.375,0-0.639-0.291-0.794-0.873l-0.232,0.039
				c-0.052,0-0.226-0.457-0.523-1.373c-0.077-0.104-0.2-0.178-0.368-0.223c-0.168-0.047-0.251-0.172-0.251-0.379
				c0-0.58,0.126-0.971,0.378-1.172c0.251-0.199,0.39-0.352,0.416-0.453l0.271-1.008c0.051-0.039,0.116-0.168,0.193-0.387
				l0.445-0.813C195.387,267.307,195.503,267.083,195.684,266.721z M199.779,265.559l-0.232,0.115
				c-0.052,0.025-0.204,0.139-0.456,0.34c-0.251,0.199-0.497,0.361-0.736,0.484c-0.239,0.121-0.484,0.441-0.735,0.957
				c-0.252,0.518-0.377,0.814-0.377,0.891c0,0.078,0.039,0.117,0.116,0.117l0.658-0.291c0.245-0.115,0.475-0.264,0.688-0.445
				c0.212-0.18,0.52-0.4,0.919-0.658l0.155-0.154c0.026-0.053,0.145-0.146,0.358-0.281s0.371-0.268,0.475-0.396l0.194-0.078
				c0.219-0.348,0.442-0.561,0.667-0.639s0.339-0.154,0.339-0.232c0-0.154-0.124-0.232-0.369-0.232
				c-0.103,0-0.258,0.064-0.464,0.193h-0.445c-0.052,0-0.194,0.078-0.426,0.232L199.779,265.559z"/>
			<path fill="#D68500" d="M204.959,286.333l-0.31,0.213c-0.129,0.078-0.265,0.117-0.407,0.117c-0.323,0-0.636-0.213-0.939-0.639
				s-0.456-0.865-0.456-1.316c0-0.814,0.081-1.393,0.242-1.734c0.162-0.342,0.255-0.596,0.281-0.764
				c0-0.014,0.139-0.332,0.417-0.959c0.278-0.627,0.539-1.1,0.784-1.422c0.245-0.324,0.451-0.627,0.62-0.91l0.077-0.156
				c0.194-0.309,0.381-0.521,0.562-0.639c0-0.076,0.249-0.346,0.745-0.803c0.497-0.459,0.965-0.85,1.404-1.172l0.194-0.271
				c0.31-0.193,0.49-0.289,0.542-0.289l1.123-0.311c0.103-0.104,0.354-0.303,0.755-0.6h0.155l0.523-0.156
				c0.284-0.129,0.725-0.248,1.323-0.357c0.598-0.109,0.938-0.238,1.02-0.387c0.082-0.148,0.151-0.287,0.207-0.416
				s0.198-0.4,0.424-0.814c0.051-0.219,0.096-0.393,0.135-0.521c0.039-0.129,0.081-0.207,0.126-0.232
				c0.045-0.025,0.119-0.152,0.222-0.379c0.104-0.225,0.207-0.416,0.31-0.57c0.026,0,0.04-0.012,0.04-0.039l-0.117-0.328
				c0.104-0.311,0.209-0.5,0.32-0.572c0.109-0.07,0.164-0.119,0.164-0.145l-0.135-0.35l0.329-0.715c0-0.053-0.026-0.078-0.078-0.078
				c-0.684,0.479-1.084,0.717-1.2,0.717c-0.064,0.09-0.206,0.244-0.425,0.465c-0.219,0.076-0.368,0.213-0.444,0.406l-0.155,0.039
				l-0.116,0.193c0,0.025-0.046,0.059-0.136,0.096c-0.09,0.039-0.271,0.143-0.541,0.311l-0.232-0.039
				c-0.051,0-0.116,0.129-0.193,0.387c-0.219,0.26-0.429,0.418-0.628,0.475c-0.2,0.059-0.325,0.127-0.377,0.203l-0.154,0.193
				l-0.194-0.037c-0.271,0-0.406,0.104-0.406,0.309c0,0.117-0.078,0.252-0.231,0.406c-0.104,0-0.233,0.039-0.387,0.117h-0.291
				c-0.129,0.283-0.361,0.459-0.696,0.521l-0.561,0.389l-0.328,0.115c-0.155,0.078-0.31,0.172-0.464,0.281s-0.419,0.178-0.792,0.203
				c-0.181-0.104-0.458-0.203-0.832-0.301c-0.375-0.096-0.639-0.725-0.794-1.887h-0.039c-0.104,0-0.216,0.039-0.339,0.115
				c-0.122,0.078-0.209,0.117-0.261,0.117c-0.31,0-0.465-0.129-0.465-0.387c0-0.582,0.22-0.963,0.659-1.143l0.484-0.602l1.24-1.219
				c0.866-0.865,1.448-1.42,1.746-1.664c0.298-0.246,0.622-0.484,0.97-0.717l0.99-0.658c0.336-0.221,0.543-0.34,0.621-0.359
				c0.077-0.02,0.158-0.061,0.243-0.125c0.084-0.064,0.32-0.162,0.708-0.291l0.35-0.154c0.724-0.246,1.19-0.369,1.396-0.369
				l0.271,0.039c0.143,0,0.279-0.051,0.408-0.154c0.181,0,0.459-0.143,0.834-0.426l0.698-0.193c0.194-0.064,0.356-0.098,0.485-0.098
				h0.368c0.271,0,0.448,0.213,0.533,0.639c0.084,0.426,0.158,0.639,0.222,0.639c0.026,0,0.104-0.096,0.233-0.289l0.271-0.193
				c0.194-0.129,0.317-0.193,0.368-0.193c0.31,0,0.503,0.129,0.581,0.387v0.039l0.077,0.096c0.116,0.619,0.174,1,0.174,1.143
				c0,0.619-0.132,1.104-0.397,1.453c-0.264,0.348-0.422,0.594-0.474,0.734c-0.259,1.045-0.517,1.834-0.775,2.363
				c-0.065,0.141-0.219,0.516-0.464,1.123l-0.193,0.193c-0.052,0.025-0.078,0.064-0.078,0.115l0.039,0.271
				c-0.219,0.348-0.329,0.627-0.329,0.832c0,0.117-0.104,0.355-0.311,0.717c0.026,0.025,0.139,0.094,0.339,0.203
				s0.426,0.316,0.678,0.619c0.251,0.305,0.378,0.533,0.378,0.688c0,0.039-0.072,0.291-0.213,0.756
				c-0.465,0.348-0.859,0.521-1.182,0.521c-0.13,0-0.317-0.084-0.563-0.25l-0.117,0.037v-0.076
				c-0.168-0.039-0.301-0.088-0.398-0.146c-0.097-0.057-0.191-0.086-0.281-0.086c-0.104,0-0.156,0.051-0.156,0.154
				c0,0.051,0.013,0.104,0.039,0.154c-0.077,0.064-0.181,0.162-0.311,0.291c0,0.039-0.091,0.229-0.271,0.572
				c-0.182,0.34-0.343,0.57-0.486,0.686c-0.283,0.014-0.478,0.227-0.581,0.641c-0.103,0.412-0.226,0.676-0.368,0.793l-0.194-0.078
				c-0.438,0.879-0.877,1.512-1.316,1.898c-0.271,0.064-0.41,0.111-0.416,0.145c-0.007,0.033-0.02,0.117-0.039,0.252
				c-0.019,0.135-0.174,0.348-0.464,0.639c-0.291,0.291-0.462,0.436-0.513,0.436l-0.193,0.039l-0.116,0.115
				c0.012,0.26-0.33,0.672-1.026,1.24c-0.375,0.205-0.574,0.348-0.6,0.426c-0.104,0.244-0.484,0.535-1.143,0.871l-0.368,0.33
				c-0.167,0.154-0.335,0.264-0.503,0.328L204.959,286.333z M211.947,276.381l-0.581,0.078c-0.142-0.104-0.251-0.156-0.329-0.156
				c-0.052,0-0.09,0.039-0.116,0.117c-0.155,0.205-0.498,0.381-1.027,0.523c-0.529,0.141-0.888,0.287-1.074,0.436
				c-0.188,0.146-0.345,0.229-0.474,0.24c-0.129,0.014-0.194,0.039-0.194,0.078c-0.129,0.104-0.226,0.193-0.291,0.271
				c-0.129,0.051-0.259,0.133-0.388,0.242s-0.264,0.178-0.406,0.203c-0.232,0.504-0.4,0.754-0.503,0.754
				c-0.026,0-0.09-0.012-0.193-0.037h-0.039c-0.168,0.334-0.297,0.529-0.388,0.58c-0.09,0.051-0.167,0.127-0.232,0.223
				c-0.064,0.098-0.19,0.203-0.377,0.32c-0.187,0.115-0.313,0.313-0.377,0.59c-0.065,0.277-0.146,0.465-0.243,0.561
				c-0.097,0.098-0.157,0.314-0.183,0.648l-0.117,0.271c-0.039,0.078-0.093,0.301-0.165,0.668c-0.071,0.369-0.106,0.559-0.106,0.572
				c0,0.18,0.078,0.342,0.232,0.484c0.051-0.066,0.162-0.111,0.329-0.137l1.142-0.465c0.039-0.025,0.181-0.145,0.426-0.357
				c0.245-0.213,0.461-0.352,0.648-0.416c0.187-0.064,0.358-0.182,0.513-0.35c0.103-0.154,0.229-0.283,0.377-0.387
				c0.148-0.104,0.235-0.232,0.261-0.387c0.297-0.26,0.568-0.5,0.813-0.727c0.245-0.227,0.403-0.412,0.475-0.561
				c0.07-0.148,0.184-0.275,0.338-0.379l0.078-0.252c0.025-0.012,0.08-0.029,0.165-0.047c0.083-0.02,0.222-0.23,0.416-0.631
				l0.523-0.871c0.31-0.309,0.562-0.703,0.755-1.18l0.271-0.232c0.052-0.027,0.078-0.084,0.078-0.174L211.947,276.381z
				 M211.601,270.206l0.232-0.33c0.078-0.104,0.21-0.18,0.397-0.232c0.187-0.051,0.338-0.16,0.455-0.328
				c0.31-0.439,0.678-0.762,1.104-0.969l0.194-0.135c0.193-0.375,0.368-0.578,0.523-0.609c0.154-0.033,0.29-0.148,0.407-0.35
				c0.116-0.199,0.174-0.365,0.174-0.494c0-0.051-0.039-0.076-0.116-0.076c-0.181,0-0.339,0.051-0.474,0.154
				c-0.136,0.104-0.23,0.154-0.281,0.154l-0.388-0.037c-0.232,0.129-0.555,0.283-0.968,0.463l-0.349,0.291
				c-0.155,0.104-0.294,0.168-0.417,0.193s-0.216,0.107-0.28,0.242c-0.065,0.135-0.148,0.203-0.252,0.203l-0.155,0.078
				c-0.052,0.051-0.2,0.076-0.445,0.076c-0.129,0.078-0.261,0.188-0.397,0.33s-0.216,0.213-0.242,0.213
				c-0.297,0.322-0.551,0.523-0.765,0.6c-0.213,0.078-0.352,0.188-0.416,0.33c-0.245,0.064-0.452,0.209-0.62,0.436
				c-0.168,0.227-0.319,0.381-0.455,0.465c-0.135,0.084-0.255,0.189-0.358,0.318l-0.194,0.156c-0.078,0.051-0.184,0.223-0.319,0.512
				c-0.136,0.291-0.204,0.494-0.204,0.611c0,0.076,0.045,0.115,0.136,0.115c0.128,0,0.371-0.094,0.726-0.281
				c0.354-0.186,0.584-0.332,0.687-0.436c0.104-0.102,0.174-0.154,0.213-0.154l0.735,0.039c0.078-0.168,0.209-0.277,0.397-0.33
				c0.188-0.051,0.332-0.16,0.436-0.328s0.394-0.35,0.872-0.543l0.213-0.348H211.601z"/>
			<path fill="#D68500" d="M235.008,269.606l0.309-0.271c0.193,0,0.309-0.088,0.347-0.262s0.177-0.313,0.415-0.416
				c0.238-0.104,0.46-0.313,0.667-0.629c0.206-0.316,0.418-0.475,0.637-0.475c0.077,0,0.167,0.064,0.27,0.193
				c0.103,0.129,0.154,0.232,0.154,0.311c0,0.426-0.129,0.863-0.387,1.316l-0.077,0.541l-0.136,0.252
				c-0.194,0.104-0.319,0.213-0.377,0.33c-0.058,0.115-0.21,0.258-0.455,0.426l-0.193,0.27c-0.284,0.092-0.475,0.24-0.571,0.445
				c-0.096,0.207-0.232,0.324-0.407,0.35c-0.173,0.025-0.364,0.154-0.571,0.387c-0.128,0.064-0.284,0.123-0.464,0.174l-0.039,0.193
				c-0.129,0.131-0.333,0.232-0.61,0.311c-0.278,0.078-0.483,0.152-0.62,0.223c-0.135,0.07-0.229,0.105-0.28,0.105
				c-0.245,0-0.471-0.047-0.678-0.145c-0.206-0.096-0.419-0.158-0.638-0.184c-0.078-0.078-0.123-0.162-0.136-0.252
				c-0.013-0.09-0.077-0.209-0.193-0.357s-0.174-0.352-0.174-0.609l0.078-0.369c0-0.051-0.032-0.115-0.097-0.193
				c-0.065-0.078-0.097-0.143-0.097-0.193s0.013-0.09,0.039-0.117c0.026-0.025,0.039-0.064,0.039-0.115
				c0-0.064-0.013-0.135-0.039-0.213s-0.039-0.143-0.039-0.193l0.116-0.949c0-0.078-0.025-0.115-0.077-0.115
				s-0.146,0.064-0.281,0.193c-0.135,0.129-0.293,0.193-0.474,0.193c-0.103,0.076-0.188,0.238-0.251,0.484
				c-0.104,0.129-0.233,0.244-0.388,0.348l-0.077,0.117c-0.026,0.09-0.123,0.164-0.291,0.223c-0.168,0.057-0.284,0.131-0.349,0.223
				l-0.193,0.193l-0.368-0.039c-0.026,0.025-0.098,0.139-0.213,0.338c-0.116,0.201-0.265,0.365-0.446,0.494l-1.472,1.201
				c-0.155,0.104-0.381,0.232-0.678,0.387l-0.116,0.115c-1.033,0.686-1.762,1.027-2.188,1.027c-0.349,0-0.755-0.098-1.22-0.291
				s-0.717-0.426-0.755-0.697l-0.193-0.793c-0.116-0.182-0.175-0.432-0.175-0.756c0-0.154,0.013-0.258,0.039-0.309v-0.117
				l-0.039-0.639c0-0.154,0.123-0.232,0.368-0.232l-0.039-0.523c0-0.051,0.113-0.254,0.339-0.609
				c0.226-0.355,0.377-0.559,0.455-0.609l0.193-0.252c-0.013-0.154,0.078-0.32,0.271-0.494c0.193-0.174,0.349-0.352,0.465-0.531
				c0.116-0.182,0.336-0.381,0.659-0.602l0.582-0.58c0.452-0.451,0.943-0.813,1.473-1.084c0.077-0.025,0.236-0.154,0.475-0.387
				c0.239-0.232,0.51-0.404,0.814-0.514c0.303-0.109,0.601-0.248,0.892-0.416c0.29-0.168,0.521-0.252,0.688-0.252h0.155
				c0.051,0,0.394-0.162,1.028-0.484h0.116c0.052,0,0.174,0.053,0.369,0.154h0.039l0.31-0.154c0.052-0.025,0.117-0.039,0.194-0.039
				c0.801,0,1.241,0.555,1.318,1.666c0.026,0.232,0.09,0.348,0.194,0.348c0.129,0,0.313-0.234,0.552-0.707
				c0.239-0.471,0.746-0.705,1.521-0.705c0.555,0,0.833,0.354,0.833,1.064c0,0.838-0.375,1.633-1.124,2.381
				c-0.051,0.104-0.09,0.219-0.116,0.35l-0.271,0.793v0.039c0,0.076-0.055,0.184-0.165,0.318c-0.11,0.137-0.165,0.256-0.165,0.359
				l0.039,0.484l-0.077,0.541c0,0.246,0.044,0.406,0.135,0.484c0.412-0.104,0.711-0.273,0.897-0.514
				c0.187-0.238,0.319-0.371,0.396-0.396l0.193-0.078C234.718,269.895,234.853,269.735,235.008,269.606z M228.578,269.606
				c0.052-0.285,0.21-0.502,0.475-0.65c0.264-0.146,0.422-0.299,0.474-0.455c0.245-0.18,0.597-0.502,1.055-0.967
				c0.458-0.465,0.688-0.748,0.688-0.852c0-0.039-0.027-0.059-0.078-0.059h-0.039l-0.155,0.098l-0.349-0.039l-0.368,0.039
				l-0.271-0.137l-0.252,0.039l-0.387-0.078c-0.207,0-0.384,0.043-0.532,0.127c-0.148,0.084-0.433,0.178-0.853,0.281
				c-0.419,0.102-0.797,0.279-1.133,0.531c-0.336,0.252-0.581,0.377-0.736,0.377c-0.091,0.195-0.394,0.473-0.91,0.834
				c-0.311,0.104-0.511,0.328-0.601,0.678c-0.335,0.27-0.503,0.426-0.503,0.463l-0.136,0.33c-0.104,0.09-0.232,0.164-0.387,0.223
				s-0.246,0.193-0.271,0.406c-0.026,0.213-0.113,0.406-0.262,0.582c-0.148,0.174-0.222,0.313-0.222,0.416
				c0,0.633,0.123,0.947,0.368,0.947c0.103,0,0.319-0.066,0.648-0.203c0.329-0.135,0.52-0.229,0.571-0.279
				c0.052-0.053,0.155-0.104,0.31-0.156l0.368-0.193c0.051-0.051,0.109-0.084,0.174-0.096c0.064-0.014,0.129-0.055,0.194-0.127
				c0.064-0.07,0.181-0.148,0.348-0.232s0.297-0.195,0.387-0.338c0.22-0.129,0.575-0.33,1.066-0.602l0.406-0.309
				c0.284-0.129,0.458-0.238,0.523-0.33C228.256,269.786,228.384,269.696,228.578,269.606z"/>
			<path fill="#D68500" d="M238.081,272.741l-0.155-0.986c0-0.078,0.039-0.201,0.116-0.367c0.077,0,0.142-0.027,0.193-0.078
				l-0.116-0.35c0-0.451,0.126-0.842,0.378-1.17c0.252-0.33,0.392-0.553,0.417-0.668c0.026-0.117,0.209-0.494,0.553-1.133
				c0.342-0.639,0.597-1.049,0.765-1.23l0.117-0.252l0.155-0.037c0.297-0.479,0.717-0.91,1.26-1.299
				c0.181-0.283,0.4-0.516,0.659-0.695c0.258-0.182,0.433-0.311,0.523-0.389c0.09-0.076,0.226-0.129,0.407-0.154l0.077-0.039
				c0.375-0.373,0.698-0.561,0.97-0.561c0.09-0.09,0.271-0.193,0.542-0.311h0.213c0.078,0,0.155-0.025,0.233-0.076
				c0.077-0.053,0.154-0.078,0.232-0.078c0.051,0,0.187,0.051,0.407,0.154c0.207-0.205,0.375-0.309,0.504-0.309
				c0.271,0,0.546,0.104,0.824,0.309c0.278,0.207,0.456,0.459,0.533,0.756c0.077,0.297,0.142,0.471,0.194,0.521
				c0.051,0.053,0.103,0.117,0.155,0.195c0.104,0,0.239-0.24,0.407-0.717l0.232-0.311c0.351-0.451,0.591-0.98,0.721-1.588
				c0.026-0.025,0.065-0.131,0.117-0.318s0.188-0.508,0.41-0.959c0.376-0.541,0.643-1.098,0.798-1.666l0.234-0.348
				c0.156-0.104,0.24-0.215,0.253-0.338s0.052-0.236,0.117-0.34c0.064-0.104,0.138-0.229,0.222-0.377s0.152-0.248,0.204-0.301
				c0.051-0.051,0.129-0.229,0.232-0.531c0.103-0.305,0.229-0.475,0.377-0.514c0.148-0.039,0.3-0.109,0.455-0.213l0.039-0.137
				l-0.078-0.27c0-0.156,0.171-0.426,0.513-0.814c0.342-0.387,0.587-0.707,0.736-0.957c0.148-0.252,0.4-0.641,0.755-1.162
				c0.355-0.523,0.61-0.842,0.765-0.959l0.445-0.465c0.207-0.297,0.497-0.445,0.872-0.445c0.284,0,0.581,0.152,0.891,0.455
				c0.31,0.305,0.465,0.604,0.465,0.9c0,0.104-0.071,0.342-0.213,0.717l-0.039,0.232c0,0.207-0.071,0.451-0.213,0.736
				c-0.142,0.283-0.226,0.502-0.251,0.658l-1.084,2.652c-0.129,0.051-0.207,0.09-0.232,0.115c-0.335,0.736-0.601,1.137-0.794,1.201
				v0.387c0,0.143-0.09,0.246-0.271,0.311l-0.078,0.037c-0.116,0.492-0.264,0.846-0.445,1.066c-0.181,0.219-0.313,0.441-0.397,0.668
				c-0.084,0.225-0.216,0.352-0.397,0.377c-0.181,0.025-0.271,0.277-0.271,0.756c-0.052,0.258-0.181,0.387-0.387,0.387
				c-0.194,0-0.317,0.168-0.368,0.502c-0.052,0.336-0.303,0.518-0.754,0.543c-0.129,0.078-0.208,0.168-0.233,0.271l0.155,0.484
				c0,0.076-0.239,0.381-0.716,0.91l-0.155,0.502c-0.245,0.092-0.445,0.756-0.6,1.994l-0.232,1.336l0.039,0.523l-0.078,0.271
				l0.232,0.793l-0.039,0.445c0,0.207,0.078,0.311,0.232,0.311c0.078,0,0.252-0.117,0.523-0.35l0.271-0.115
				c0.812-0.412,1.313-0.813,1.507-1.201c0.052-0.051,0.145-0.102,0.28-0.154c0.135-0.051,0.235-0.123,0.299-0.213
				s0.116-0.154,0.155-0.193c0.786-0.516,1.294-0.969,1.526-1.355s0.47-0.619,0.715-0.697l0.154-0.154
				c0.155-0.129,0.284-0.193,0.387-0.193c0.219,0,0.329,0.064,0.329,0.193l-0.155,0.541c0.129,0.35,0.193,0.549,0.193,0.602
				c0,0.451-0.2,0.729-0.601,0.832c-0.168,0.168-0.3,0.361-0.397,0.58c-0.097,0.221-0.307,0.355-0.629,0.406
				c-0.219,0.311-0.419,0.514-0.6,0.611c-0.181,0.096-0.271,0.197-0.271,0.299v0.176c-0.104,0.154-0.194,0.258-0.271,0.309
				l-0.368-0.076c-0.052,0.154-0.167,0.367-0.348,0.639c-0.065-0.053-0.123-0.078-0.175-0.078c-0.181,0-0.329,0.109-0.445,0.33
				c-0.116,0.219-0.201,0.328-0.252,0.328h-0.445c-0.065,0.039-0.168,0.123-0.311,0.252c-0.143,0.129-0.381,0.193-0.717,0.193
				l-0.6,0.117c-0.568,0-1.092-0.186-1.57-0.553c-0.478-0.367-0.732-0.703-0.765-1.006c-0.033-0.305-0.139-0.668-0.32-1.096
				l-0.038-0.793c-0.143-0.826-0.304-1.238-0.485-1.238l-0.039,0.25l-0.155,0.078c-0.078,0.4-0.207,0.6-0.388,0.6
				c-0.077,0.039-0.162,0.104-0.252,0.195l-0.116,0.076c-0.052,0.025-0.126,0.137-0.223,0.33c-0.097,0.193-0.365,0.465-0.804,0.813
				c-0.181,0.479-0.317,0.717-0.407,0.717l-0.232-0.154h-0.039c-0.104,0-0.188,0.15-0.252,0.455
				c-0.065,0.303-0.194,0.453-0.388,0.453c-0.052,0-0.1,0.088-0.145,0.262c-0.045,0.176-0.159,0.285-0.34,0.33
				c-0.181,0.045-0.342,0.223-0.484,0.531c-0.143,0.311-0.239,0.465-0.291,0.465c-0.026,0-0.064-0.012-0.116-0.037l-0.33,0.076
				c-0.065,0.09-0.155,0.238-0.271,0.445c-0.117,0.039-0.22,0.09-0.311,0.154c-0.4,0.389-0.93,0.582-1.589,0.582
				c-0.465,0-0.833-0.1-1.105-0.301c-0.271-0.199-0.434-0.371-0.484-0.514c-0.052-0.141-0.148-0.318-0.291-0.531
				C238.21,273.313,238.119,273.051,238.081,272.741z M245.813,268.346l0.136-0.252c0.219-0.076,0.361-0.27,0.426-0.58
				c0.103-0.078,0.368-0.414,0.794-1.008c0.426-0.592,0.639-0.922,0.639-0.986c-0.129-0.129-0.277-0.193-0.445-0.193
				c-0.026,0-0.104,0.025-0.232,0.076c-0.129,0.053-0.262,0.092-0.397,0.117c-0.136,0.025-0.281,0.078-0.436,0.154l-0.484-0.076
				c-0.142,0-0.458,0.186-0.949,0.561l-0.446-0.078c-0.078,0-0.207,0.168-0.388,0.504l-0.988,0.795h-0.116
				c-0.181,0-0.304,0.16-0.368,0.482c-0.22,0.285-0.426,0.482-0.62,0.592s-0.33,0.268-0.407,0.475v0.25
				c-0.362,0.4-0.542,0.705-0.542,0.91c-0.271,0.26-0.449,0.537-0.533,0.834s-0.184,0.549-0.3,0.754
				c0.051,0.182,0.09,0.404,0.116,0.668c0.025,0.266,0.155,0.396,0.387,0.396c0.375,0,0.788-0.225,1.24-0.678
				c0.025-0.025,0.135-0.096,0.329-0.213c0.194-0.115,0.461-0.344,0.804-0.686c0.342-0.344,0.533-0.52,0.571-0.533
				c0.129-0.129,0.207-0.193,0.232-0.193l0.156-0.156c0-0.051,0.055-0.109,0.164-0.174s0.255-0.195,0.436-0.396
				c0.181-0.199,0.32-0.32,0.417-0.357c0.097-0.039,0.165-0.094,0.204-0.166c0.039-0.07,0.103-0.139,0.194-0.203
				c0.09-0.064,0.136-0.135,0.136-0.213l0.038-0.232L245.813,268.346z M252.532,260.485l-0.193,0.563
				c0.167-0.025,0.315-0.199,0.445-0.523c0.387-0.555,0.651-0.896,0.794-1.025c0.167,0,0.293-0.107,0.377-0.32
				c0.084-0.213,0.236-0.422,0.456-0.629c0-0.09,0.097-0.264,0.291-0.521c0.193-0.258,0.319-0.443,0.377-0.553
				c0.058-0.109,0.178-0.254,0.358-0.436c0.181-0.18,0.352-0.49,0.513-0.93c0.161-0.438,0.3-0.703,0.416-0.793
				c0.116-0.09,0.175-0.271,0.175-0.543c0-0.373-0.026-0.561-0.078-0.561c-0.116,0-0.203,0.074-0.262,0.223
				c-0.058,0.148-0.184,0.338-0.377,0.57l-0.658,1.104c-0.258,0.439-0.43,0.787-0.513,1.047c-0.084,0.258-0.181,0.408-0.291,0.455
				c-0.109,0.045-0.242,0.17-0.396,0.377l-0.271,0.271c-0.065,0.154-0.116,0.342-0.155,0.561l-0.174,0.154v0.369
				c0,0.168-0.097,0.318-0.291,0.455c-0.193,0.135-0.29,0.223-0.29,0.262L252.532,260.485z"/>
			<path fill="#D68500" d="M265.28,272.586l-0.91,0.793c-0.053-0.051-0.104-0.076-0.155-0.076c-0.129,0-0.287,0.115-0.475,0.348
				c-0.187,0.232-0.319,0.35-0.396,0.35l-0.194-0.039c-0.323,0.246-0.556,0.387-0.698,0.426s-0.313,0.109-0.513,0.213
				s-0.381,0.162-0.542,0.174c-0.162,0.014-0.294,0.068-0.397,0.166c-0.104,0.096-0.355,0.145-0.755,0.145l-0.31-0.039
				c-0.168,0.078-0.278,0.117-0.329,0.117c-0.104,0-0.214-0.055-0.33-0.166c-0.116-0.109-0.243-0.17-0.378-0.184
				c-0.135-0.012-0.274-0.104-0.417-0.271c-0.142-0.166-0.274-0.283-0.396-0.348c-0.123-0.064-0.223-0.154-0.301-0.271l-0.271-0.232
				c-0.22-0.154-0.433-0.438-0.639-0.852c-0.207-0.412-0.31-0.736-0.31-0.969v-0.076l0.039-0.369l-0.039-0.426
				c0.051-0.051,0.116-0.16,0.193-0.328v-0.619l0.464-1.551c0.026-0.064-0.026-0.146-0.154-0.25
				c-0.129,0.193-0.259,0.309-0.389,0.348c-0.13,0.039-0.217,0.129-0.263,0.271c-0.045,0.143-0.12,0.213-0.224,0.213l-0.234-0.078
				c-0.026,0.027-0.085,0.158-0.176,0.398c-0.091,0.238-0.247,0.357-0.468,0.357c-0.235,0-0.352-0.09-0.352-0.271l0.039-0.348
				l-0.117-0.484c0-0.104,0.104-0.307,0.311-0.609c0.207-0.305,0.397-0.479,0.572-0.523c0.175-0.045,0.323-0.168,0.447-0.367
				c0.122-0.201,0.391-0.443,0.804-0.727c0.232-0.053,0.433-0.219,0.602-0.504c0.181-0.143,0.416-0.258,0.708-0.348
				c0.291-0.092,0.511-0.223,0.66-0.398c0.148-0.174,0.588-0.445,1.319-0.813s1.264-0.551,1.6-0.551
				c0.103,0,0.245-0.029,0.427-0.088c0.181-0.059,0.349-0.109,0.504-0.154c0.154-0.045,0.316-0.117,0.484-0.213
				c0.168-0.098,0.304-0.146,0.408-0.146l0.562,0.193c0.414,0.117,0.666,0.201,0.757,0.252c0.025,0.027,0.158,0.082,0.397,0.164
				c0.239,0.086,0.485,0.197,0.737,0.34s0.378,0.406,0.378,0.793c-0.22,0.324-0.33,0.498-0.33,0.523
				c0,0.053,0.148,0.129,0.446,0.232c0.104,0.193,0.259,0.445,0.466,0.756l0.213,0.678l0.038,1.586l-0.038,0.156
				c-0.142,0.129-0.213,0.213-0.213,0.252l0.059,0.387l-0.155,0.541c-0.039,0.168-0.104,0.279-0.194,0.33s-0.148,0.115-0.174,0.193
				l-0.116,0.154c-0.026,0.039-0.081,0.152-0.165,0.34s-0.178,0.332-0.281,0.436c-0.103,0.104-0.168,0.227-0.193,0.367
				c-0.025,0.143-0.091,0.246-0.193,0.311c-0.104,0.064-0.178,0.133-0.224,0.203C265.458,272.473,265.384,272.536,265.28,272.586z
				 M259.264,273.09l0.077,0.445l0.039,0.039h0.309l0.097,0.039c0.257,0.051,0.451,0.076,0.58,0.076c0.399,0,0.718-0.1,0.956-0.299
				c0.238-0.201,0.428-0.301,0.57-0.301c0.141,0,0.26-0.098,0.357-0.291s0.158-0.291,0.184-0.291h0.271l0.077-0.037
				c0-0.297,0.132-0.51,0.396-0.639c0.264-0.131,0.451-0.301,0.56-0.514c0.11-0.213,0.235-0.375,0.377-0.484s0.238-0.254,0.29-0.436
				l0.154-0.232c0.051-0.051,0.077-0.148,0.077-0.291l0.367-0.697c0.077-0.322,0.116-0.574,0.116-0.754
				c0-0.271-0.139-0.484-0.416-0.639c-0.277-0.156-0.415-0.459-0.415-0.91c0-0.297,0.151-0.572,0.454-0.824
				c0.303-0.25,0.454-0.402,0.454-0.453c0-0.078-0.038-0.117-0.116-0.117c-0.038,0-0.187,0.053-0.444,0.154
				c-0.09,0.182-0.547,0.42-1.371,0.717c-0.271-0.129-0.419-0.193-0.445-0.193c-0.078,0-0.155,0.078-0.232,0.232
				s-0.154,0.266-0.231,0.33h-0.251c-0.026,0-0.109,0.084-0.251,0.25c-0.142,0.168-0.322,0.252-0.541,0.252l-0.232,0.232
				c0.013,0.207-0.116,0.42-0.387,0.639l-0.212,0.252c-0.129,0.154-0.296,0.336-0.502,0.543l-0.348,0.871
				c-0.142,0.336-0.213,0.588-0.213,0.754c-0.039,0.078-0.125,0.158-0.261,0.242c-0.136,0.084-0.204,0.191-0.204,0.32
				c0,0.025,0.045,0.09,0.135,0.193s0.135,0.182,0.135,0.232l-0.077,0.252l-0.078,0.717L259.264,273.09z"/>
			<path fill="#D68500" d="M280.229,272.741l-0.154-0.986c0-0.078,0.039-0.201,0.116-0.367c0.077,0,0.142-0.027,0.193-0.078
				l-0.116-0.35c0-0.451,0.126-0.842,0.377-1.17c0.253-0.33,0.392-0.553,0.418-0.668c0.025-0.117,0.209-0.494,0.552-1.133
				s0.598-1.049,0.766-1.23l0.116-0.252l0.155-0.037c0.297-0.479,0.717-0.91,1.26-1.299c0.181-0.283,0.4-0.516,0.659-0.695
				c0.258-0.182,0.433-0.311,0.523-0.389c0.09-0.076,0.227-0.129,0.406-0.154l0.078-0.039c0.374-0.373,0.697-0.561,0.97-0.561
				c0.09-0.09,0.271-0.193,0.542-0.311h0.213c0.078,0,0.155-0.025,0.232-0.076c0.078-0.053,0.155-0.078,0.233-0.078
				c0.051,0,0.187,0.051,0.406,0.154c0.207-0.205,0.375-0.309,0.505-0.309c0.271,0,0.545,0.104,0.823,0.309
				c0.277,0.207,0.456,0.459,0.532,0.756c0.078,0.297,0.143,0.471,0.194,0.521c0.052,0.053,0.104,0.117,0.155,0.195
				c0.104,0,0.238-0.24,0.406-0.717l0.233-0.311c0.351-0.451,0.591-0.98,0.721-1.588c0.026-0.025,0.064-0.131,0.116-0.318
				c0.053-0.188,0.189-0.508,0.41-0.959c0.376-0.541,0.643-1.098,0.799-1.666l0.233-0.348c0.156-0.104,0.24-0.215,0.254-0.338
				c0.013-0.123,0.052-0.236,0.116-0.34s0.139-0.229,0.223-0.377c0.083-0.148,0.151-0.248,0.203-0.301
				c0.051-0.051,0.129-0.229,0.232-0.531c0.104-0.305,0.229-0.475,0.378-0.514c0.147-0.039,0.3-0.109,0.454-0.213l0.039-0.137
				l-0.077-0.27c0-0.156,0.171-0.426,0.513-0.814c0.342-0.387,0.588-0.707,0.736-0.957c0.147-0.252,0.399-0.641,0.754-1.162
				c0.355-0.523,0.61-0.842,0.766-0.959l0.445-0.465c0.206-0.297,0.497-0.445,0.871-0.445c0.284,0,0.581,0.152,0.891,0.455
				c0.31,0.305,0.465,0.604,0.465,0.9c0,0.104-0.071,0.342-0.213,0.717l-0.039,0.232c0,0.207-0.071,0.451-0.213,0.736
				c-0.142,0.283-0.226,0.502-0.252,0.658l-1.084,2.652c-0.129,0.051-0.207,0.09-0.232,0.115c-0.336,0.736-0.6,1.137-0.794,1.201
				v0.387c0,0.143-0.09,0.246-0.271,0.311l-0.078,0.037c-0.116,0.492-0.264,0.846-0.444,1.066c-0.182,0.219-0.313,0.441-0.397,0.668
				c-0.084,0.225-0.216,0.352-0.396,0.377c-0.182,0.025-0.271,0.277-0.271,0.756c-0.052,0.258-0.181,0.387-0.387,0.387
				c-0.194,0-0.317,0.168-0.368,0.502c-0.052,0.336-0.304,0.518-0.755,0.543c-0.13,0.078-0.207,0.168-0.232,0.271l0.154,0.484
				c0,0.076-0.239,0.381-0.716,0.91l-0.155,0.502c-0.245,0.092-0.445,0.756-0.601,1.994l-0.232,1.336l0.04,0.523l-0.078,0.271
				l0.232,0.793l-0.039,0.445c0,0.207,0.077,0.311,0.232,0.311c0.078,0,0.252-0.117,0.523-0.35l0.271-0.115
				c0.812-0.412,1.313-0.813,1.507-1.201c0.051-0.051,0.145-0.102,0.28-0.154c0.135-0.051,0.234-0.123,0.299-0.213
				s0.116-0.154,0.155-0.193c0.785-0.516,1.294-0.969,1.526-1.355c0.231-0.387,0.47-0.619,0.715-0.697l0.154-0.154
				c0.154-0.129,0.283-0.193,0.387-0.193c0.219,0,0.328,0.064,0.328,0.193l-0.154,0.541c0.129,0.35,0.193,0.549,0.193,0.602
				c0,0.451-0.201,0.729-0.601,0.832c-0.168,0.168-0.301,0.361-0.397,0.58c-0.097,0.221-0.307,0.355-0.63,0.406
				c-0.22,0.311-0.419,0.514-0.6,0.611c-0.182,0.096-0.271,0.197-0.271,0.299v0.176c-0.104,0.154-0.194,0.258-0.271,0.309
				l-0.368-0.076c-0.052,0.154-0.167,0.367-0.348,0.639c-0.065-0.053-0.123-0.078-0.175-0.078c-0.181,0-0.33,0.109-0.446,0.33
				c-0.116,0.219-0.2,0.328-0.251,0.328h-0.445c-0.065,0.039-0.168,0.123-0.311,0.252s-0.381,0.193-0.717,0.193l-0.6,0.117
				c-0.568,0-1.092-0.186-1.57-0.553c-0.478-0.367-0.732-0.703-0.765-1.006c-0.032-0.305-0.139-0.668-0.319-1.096l-0.039-0.793
				c-0.143-0.826-0.304-1.238-0.484-1.238l-0.038,0.25l-0.155,0.078c-0.078,0.4-0.207,0.6-0.388,0.6
				c-0.078,0.039-0.162,0.104-0.252,0.195l-0.116,0.076c-0.053,0.025-0.126,0.137-0.224,0.33c-0.097,0.193-0.365,0.465-0.804,0.813
				c-0.182,0.479-0.316,0.717-0.408,0.717l-0.232-0.154h-0.038c-0.104,0-0.188,0.15-0.252,0.455
				c-0.065,0.303-0.194,0.453-0.388,0.453c-0.052,0-0.101,0.088-0.146,0.262c-0.046,0.176-0.158,0.285-0.34,0.33
				c-0.181,0.045-0.343,0.223-0.483,0.531c-0.143,0.311-0.24,0.465-0.292,0.465c-0.025,0-0.064-0.012-0.115-0.037l-0.33,0.076
				c-0.064,0.09-0.155,0.238-0.271,0.445c-0.116,0.039-0.22,0.09-0.311,0.154c-0.4,0.389-0.93,0.582-1.589,0.582
				c-0.466,0-0.834-0.1-1.105-0.301c-0.271-0.199-0.434-0.371-0.484-0.514c-0.051-0.141-0.148-0.318-0.291-0.531
				C280.359,273.313,280.269,273.051,280.229,272.741z M287.962,268.346l0.136-0.252c0.22-0.076,0.362-0.27,0.427-0.58
				c0.103-0.078,0.367-0.414,0.794-1.008c0.426-0.592,0.64-0.922,0.64-0.986c-0.13-0.129-0.278-0.193-0.446-0.193
				c-0.026,0-0.104,0.025-0.232,0.076c-0.129,0.053-0.262,0.092-0.396,0.117c-0.136,0.025-0.281,0.078-0.437,0.154l-0.484-0.076
				c-0.142,0-0.458,0.186-0.949,0.561l-0.445-0.078c-0.077,0-0.207,0.168-0.388,0.504l-0.987,0.795h-0.116
				c-0.181,0-0.304,0.16-0.368,0.482c-0.22,0.285-0.426,0.482-0.62,0.592c-0.193,0.109-0.329,0.268-0.407,0.475v0.25
				c-0.361,0.4-0.542,0.705-0.542,0.91c-0.271,0.26-0.449,0.537-0.533,0.834c-0.083,0.297-0.184,0.549-0.3,0.754
				c0.052,0.182,0.091,0.404,0.116,0.668c0.026,0.266,0.155,0.396,0.388,0.396c0.374,0,0.787-0.225,1.24-0.678
				c0.025-0.025,0.135-0.096,0.329-0.213c0.193-0.115,0.461-0.344,0.804-0.686c0.342-0.344,0.532-0.52,0.571-0.533
				c0.129-0.129,0.206-0.193,0.232-0.193l0.155-0.156c0-0.051,0.055-0.109,0.164-0.174s0.255-0.195,0.436-0.396
				c0.182-0.199,0.32-0.32,0.417-0.357c0.097-0.039,0.165-0.094,0.203-0.166c0.039-0.07,0.104-0.139,0.194-0.203
				c0.09-0.064,0.135-0.135,0.135-0.213l0.039-0.232L287.962,268.346z M294.681,260.485l-0.193,0.563
				c0.167-0.025,0.315-0.199,0.444-0.523c0.389-0.555,0.652-0.896,0.795-1.025c0.167,0,0.293-0.107,0.377-0.32
				s0.235-0.422,0.455-0.629c0-0.09,0.098-0.264,0.29-0.521c0.194-0.258,0.32-0.443,0.378-0.553s0.177-0.254,0.358-0.436
				c0.181-0.18,0.352-0.49,0.513-0.93c0.161-0.438,0.301-0.703,0.417-0.793c0.115-0.09,0.174-0.271,0.174-0.543
				c0-0.373-0.026-0.561-0.077-0.561c-0.116,0-0.203,0.074-0.262,0.223s-0.184,0.338-0.378,0.57l-0.658,1.104
				c-0.258,0.439-0.429,0.787-0.513,1.047c-0.084,0.258-0.182,0.408-0.29,0.455c-0.11,0.045-0.242,0.17-0.397,0.377l-0.271,0.271
				c-0.065,0.154-0.116,0.342-0.156,0.561l-0.173,0.154v0.369c0,0.168-0.098,0.318-0.291,0.455
				c-0.193,0.135-0.291,0.223-0.291,0.262L294.681,260.485z"/>
			<path fill="#D68500" d="M299.944,266.721l0.406-0.33c0.31-0.025,0.478-0.188,0.503-0.484s0.239-0.555,0.639-0.773l0.232-0.33
				c0.193-0.193,0.722-0.445,1.586-0.754c0.22-0.129,0.368-0.246,0.446-0.35c0.025-0.025,0.051-0.039,0.076-0.039l0.311,0.078
				c0.168,0,0.383-0.045,0.647-0.137c0.265-0.09,0.52-0.135,0.765-0.135l0.813-0.039c0.052,0,0.158,0.039,0.319,0.117
				c0.161,0.076,0.357,0.115,0.59,0.115c0.284,0,0.545,0.129,0.784,0.389c0.238,0.258,0.357,0.496,0.357,0.715
				c0,0.4-0.206,0.807-0.618,1.221c-0.412,0.412-0.74,0.645-0.985,0.697c-0.219,0.219-0.387,0.357-0.503,0.416
				c-0.115,0.059-0.235,0.148-0.357,0.271c-0.122,0.121-0.222,0.184-0.3,0.184c-0.052,0-0.09-0.016-0.116-0.049
				c-0.025-0.033-0.063-0.049-0.115-0.049c-0.206,0-0.433,0.252-0.676,0.756l-0.348-0.039c-0.22,0.143-0.361,0.297-0.426,0.465
				s-0.2,0.252-0.406,0.252c-0.476,0.477-0.799,0.717-0.966,0.717c-0.026,0-0.116-0.027-0.271-0.078
				c-0.104,0.129-0.155,0.264-0.155,0.406c0,0.154-0.103,0.246-0.31,0.271l-0.25,0.232l-0.193-0.039l-0.387,0.406
				c-0.194,0-0.394,0.064-0.599,0.193c-0.026,0.156-0.065,0.352-0.117,0.592c-0.052,0.238-0.077,0.371-0.077,0.396
				c0,0.375,0.342,0.561,1.026,0.561l0.93-0.135c0.245,0,0.475-0.064,0.688-0.193s0.441-0.193,0.688-0.193
				c0.077,0,0.193-0.027,0.348-0.078l0.194,0.078c0.09-0.193,0.259-0.369,0.504-0.523c0.244-0.154,0.438-0.232,0.58-0.232
				l0.194-0.115c0.052-0.156,0.129-0.26,0.232-0.311l0.154-0.135c0.104-0.104,0.2-0.156,0.29-0.156h0.271l0.078-0.039
				c0.154-0.334,0.37-0.531,0.648-0.59c0.277-0.059,0.452-0.152,0.522-0.281s0.197-0.205,0.378-0.232
				c0.181-0.025,0.332-0.111,0.455-0.26s0.273-0.287,0.454-0.418c0.182-0.129,0.308-0.225,0.379-0.289
				c0.07-0.064,0.132-0.098,0.184-0.098c0.077,0,0.116,0.059,0.116,0.174c0,0.117,0.025,0.176,0.077,0.176s0.078-0.025,0.078-0.078
				c0-0.051-0.014-0.117-0.039-0.193v-0.137c0-0.193,0.103-0.322,0.31-0.387l0.871-0.561c0.026-0.271,0.101-0.43,0.224-0.475
				c0.122-0.045,0.216-0.098,0.28-0.156c0.064-0.057,0.136-0.086,0.213-0.086c0.168,0,0.252,0.098,0.252,0.291l-0.097,0.502
				l0.097,0.523c0,0.078-0.062,0.184-0.184,0.32c-0.124,0.135-0.217,0.342-0.281,0.619c-0.065,0.277-0.148,0.43-0.252,0.455h-0.116
				c-0.233,0.244-0.417,0.391-0.553,0.436s-0.242,0.125-0.32,0.242l-0.658,0.754c-0.129,0.129-0.239,0.246-0.329,0.35
				c-0.091,0.104-0.162,0.154-0.213,0.154l-0.155-0.154c0-0.025-0.026-0.039-0.077-0.039c-0.13,0-0.211,0.078-0.243,0.232
				s-0.1,0.291-0.203,0.406c-0.388,0.182-0.64,0.348-0.756,0.504l-0.116,0.039h-0.349c-0.168,0-0.284,0.125-0.349,0.377
				s-0.249,0.396-0.552,0.436c-0.304,0.039-0.521,0.115-0.649,0.232c-0.026,0.025-0.084,0.051-0.175,0.076
				c-0.091,0.027-0.271,0.131-0.542,0.311l-1.628,0.58c-0.13,0.066-0.214,0.098-0.252,0.098l-0.543,0.078
				c-0.077,0-0.154-0.053-0.232-0.156c-0.077-0.102-0.129-0.154-0.155-0.154l-0.349,0.117c-0.258,0.076-0.504,0.115-0.735,0.115
				c-0.13,0-0.272-0.045-0.427-0.135c-0.155-0.09-0.278-0.156-0.368-0.193c-0.375,0-0.64-0.291-0.794-0.873l-0.232,0.039
				c-0.053,0-0.227-0.457-0.523-1.373c-0.078-0.104-0.2-0.178-0.368-0.223c-0.168-0.047-0.252-0.172-0.252-0.379
				c0-0.58,0.126-0.971,0.378-1.172c0.252-0.199,0.391-0.352,0.416-0.453l0.271-1.008c0.051-0.039,0.115-0.168,0.193-0.387
				l0.444-0.813C299.647,267.307,299.764,267.083,299.944,266.721z M304.039,265.559l-0.232,0.115
				c-0.052,0.025-0.203,0.139-0.455,0.34c-0.252,0.199-0.497,0.361-0.736,0.484c-0.238,0.121-0.483,0.441-0.735,0.957
				c-0.252,0.518-0.377,0.814-0.377,0.891c0,0.078,0.038,0.117,0.115,0.117l0.659-0.291c0.245-0.115,0.474-0.264,0.687-0.445
				c0.213-0.18,0.52-0.4,0.92-0.658l0.155-0.154c0.025-0.053,0.145-0.146,0.357-0.281s0.371-0.268,0.475-0.396l0.194-0.078
				c0.219-0.348,0.441-0.561,0.668-0.639c0.226-0.078,0.338-0.154,0.338-0.232c0-0.154-0.123-0.232-0.367-0.232
				c-0.104,0-0.259,0.064-0.465,0.193h-0.445c-0.052,0-0.193,0.078-0.426,0.232L304.039,265.559z"/>
			<path fill="#D68500" d="M321.701,269.004v-0.193c0-0.129,0.129-0.406,0.387-0.832s0.555-0.703,0.89-0.832
				c0.025,0,0.039-0.014,0.039-0.039l-0.039-0.311c0.052-0.051,0.181-0.219,0.387-0.504c0.207-0.283,0.406-0.406,0.6-0.367
				c0.143-0.207,0.323-0.377,0.542-0.514c0.219-0.135,0.419-0.313,0.6-0.531l0.716-0.445c0.503-0.336,0.871-0.504,1.103-0.504h0.291
				c0.154-0.258,0.36-0.387,0.619-0.387c0.245,0,0.406,0.039,0.483,0.115c0.025,0.027,0.052,0.039,0.077,0.039
				c0.013,0,0.091-0.051,0.232-0.154s0.315-0.156,0.521-0.156c0.052,0,0.343,0.104,0.871,0.311c0.155-0.154,0.303-0.232,0.445-0.232
				c0.052,0,0.142,0.039,0.271,0.117c0.129,0.076,0.261,0.145,0.396,0.203c0.136,0.057,0.268,0.297,0.396,0.715
				c0.129,0.42,0.193,0.656,0.193,0.707c0,0.207-0.171,0.449-0.512,0.727s-0.66,0.416-0.956,0.416c-0.104,0-0.231-0.09-0.387-0.271
				c-0.387-0.076-0.714-0.174-0.985-0.289c-0.36,0.076-0.638,0.174-0.83,0.289h-0.039l-0.174-0.154l-0.154-0.039h-0.039
				c-0.039,0.053-0.09,0.143-0.154,0.271c-0.206,0.143-0.383,0.236-0.531,0.281s-0.268,0.115-0.357,0.213
				c-0.09,0.096-0.242,0.197-0.454,0.301c-0.213,0.102-0.371,0.244-0.474,0.426c-0.258,0.141-0.444,0.225-0.56,0.25h-0.116
				c-0.103,0.207-0.342,0.549-0.715,1.027l-0.503,0.832c-0.116,0.104-0.258,0.223-0.426,0.357c-0.167,0.137-0.251,0.256-0.251,0.359
				c0,0.025,0.013,0.09,0.038,0.193v0.193c0,0.078-0.062,0.172-0.184,0.281c-0.123,0.109-0.184,0.189-0.184,0.242l0.038,0.426
				l-0.154,0.678c0,0.4,0.29,0.6,0.871,0.6h0.291l0.831-0.135c0.271-0.039,0.495-0.078,0.677-0.117
				c0.181-0.039,0.283-0.059,0.31-0.059c0.025,0,0.129-0.07,0.31-0.213h0.193l0.174-0.037c0.052-0.271,0.419-0.498,1.103-0.678
				c0.154-0.232,0.416-0.404,0.783-0.514s0.738-0.346,1.111-0.707h0.291c0.038,0,0.158-0.074,0.357-0.223s0.406-0.268,0.619-0.357
				s0.345-0.168,0.396-0.232c0.052-0.064,0.149-0.123,0.291-0.174c0.232-0.361,0.509-0.588,0.832-0.678l0.077-0.078
				c0.206-0.182,0.335-0.271,0.387-0.271l0.231,0.039c0.13,0,0.21-0.08,0.243-0.242c0.031-0.16,0.237-0.381,0.618-0.658
				c0.38-0.277,0.622-0.416,0.725-0.416c0.245,0,0.368,0.129,0.368,0.387c0,0.193-0.11,0.305-0.329,0.33
				c0.142,0.336,0.213,0.521,0.213,0.561c0,0.426-0.213,0.703-0.639,0.832c-0.052,0.027-0.077,0.066-0.077,0.117l-0.039,0.348
				c0.013,0,0.013,0.01,0,0.029s-0.039,0.049-0.077,0.088l-0.291,0.039l-0.077,0.115c-0.284,0.154-0.613,0.42-0.987,0.795
				l-0.387,0.406h-0.059c-0.129-0.129-0.231-0.193-0.31-0.193c-0.052,0-0.116,0.09-0.194,0.27c-0.438,0.439-0.755,0.691-0.947,0.756
				c-0.078,0.025-0.214,0.129-0.407,0.311l-0.387,0.25h-0.291c-0.038,0.039-0.074,0.094-0.106,0.166
				c-0.032,0.07-0.145,0.178-0.339,0.318c-0.193,0.143-0.332,0.27-0.416,0.379s-0.203,0.189-0.358,0.242l-0.348-0.078
				c-0.117,0.207-0.329,0.309-0.639,0.309c-0.077,0.053-0.19,0.152-0.339,0.301s-0.249,0.223-0.301,0.223s-0.187-0.078-0.406-0.232
				h-0.038c-0.13,0-0.194,0.098-0.194,0.291s-0.119,0.297-0.357,0.309c-0.239,0.014-0.462,0.078-0.668,0.195h-0.039
				c-0.297,0-0.51-0.055-0.639-0.166c-0.129-0.109-0.245-0.189-0.349-0.242c-0.4,0.131-0.613,0.193-0.639,0.193
				c-0.155,0-0.304-0.063-0.445-0.193l-0.832-0.426c-0.052-0.039-0.143-0.213-0.271-0.521l-0.116-0.156
				c-0.413-0.076-0.69-0.502-0.832-1.277l-0.155-0.465c-0.026-0.025-0.039-0.084-0.039-0.174c0-0.129,0.052-0.326,0.155-0.59
				c0.104-0.266,0.207-0.621,0.311-1.066C321.165,269.403,321.378,269.122,321.701,269.004z"/>
			<path fill="#D68500" d="M343.519,272.586l-0.91,0.793c-0.052-0.051-0.104-0.076-0.155-0.076c-0.129,0-0.287,0.115-0.475,0.348
				s-0.319,0.35-0.397,0.35l-0.193-0.039c-0.322,0.246-0.556,0.387-0.697,0.426c-0.143,0.039-0.313,0.109-0.514,0.213
				s-0.381,0.162-0.542,0.174c-0.162,0.014-0.294,0.068-0.397,0.166c-0.104,0.096-0.355,0.145-0.756,0.145l-0.31-0.039
				c-0.168,0.078-0.278,0.117-0.329,0.117c-0.104,0-0.214-0.055-0.33-0.166c-0.116-0.109-0.242-0.17-0.378-0.184
				c-0.136-0.012-0.274-0.104-0.416-0.271c-0.143-0.166-0.274-0.283-0.397-0.348c-0.122-0.064-0.223-0.154-0.3-0.271l-0.271-0.232
				c-0.22-0.154-0.433-0.438-0.64-0.852c-0.207-0.412-0.31-0.736-0.31-0.969v-0.076l0.038-0.369l-0.038-0.426
				c0.051-0.051,0.116-0.16,0.193-0.328v-0.619l0.465-1.551c0.025-0.064-0.026-0.146-0.154-0.25c-0.13,0.193-0.26,0.309-0.39,0.348
				c-0.129,0.039-0.217,0.129-0.263,0.271c-0.045,0.143-0.12,0.213-0.224,0.213l-0.234-0.078c-0.025,0.027-0.084,0.158-0.176,0.398
				c-0.091,0.238-0.247,0.357-0.468,0.357c-0.234,0-0.352-0.09-0.352-0.271l0.039-0.348l-0.117-0.484
				c0-0.104,0.104-0.307,0.311-0.609c0.207-0.305,0.397-0.479,0.572-0.523s0.323-0.168,0.446-0.367
				c0.123-0.201,0.391-0.443,0.805-0.727c0.232-0.053,0.434-0.219,0.602-0.504c0.181-0.143,0.416-0.258,0.707-0.348
				c0.291-0.092,0.511-0.223,0.66-0.398c0.148-0.174,0.588-0.445,1.318-0.813s1.265-0.551,1.601-0.551
				c0.103,0,0.245-0.029,0.427-0.088c0.181-0.059,0.349-0.109,0.504-0.154c0.154-0.045,0.316-0.117,0.485-0.213
				c0.168-0.098,0.304-0.146,0.407-0.146l0.563,0.193c0.413,0.117,0.665,0.201,0.756,0.252c0.026,0.027,0.159,0.082,0.398,0.164
				c0.238,0.086,0.484,0.197,0.736,0.34s0.378,0.406,0.378,0.793c-0.22,0.324-0.329,0.498-0.329,0.523
				c0,0.053,0.148,0.129,0.445,0.232c0.104,0.193,0.259,0.445,0.466,0.756l0.214,0.678l0.038,1.586l-0.038,0.156
				c-0.143,0.129-0.214,0.213-0.214,0.252l0.059,0.387l-0.155,0.541c-0.038,0.168-0.104,0.279-0.194,0.33
				c-0.09,0.051-0.148,0.115-0.174,0.193l-0.116,0.154c-0.026,0.039-0.081,0.152-0.165,0.34s-0.178,0.332-0.28,0.436
				c-0.104,0.104-0.168,0.227-0.194,0.367c-0.025,0.143-0.09,0.246-0.193,0.311s-0.178,0.133-0.223,0.203
				C343.696,272.473,343.623,272.536,343.519,272.586z M337.503,273.09l0.077,0.445l0.039,0.039h0.309l0.097,0.039
				c0.258,0.051,0.451,0.076,0.58,0.076c0.398,0,0.718-0.1,0.956-0.299c0.238-0.201,0.428-0.301,0.569-0.301
				c0.143,0,0.261-0.098,0.357-0.291c0.098-0.193,0.158-0.291,0.184-0.291h0.271l0.077-0.037c0-0.297,0.131-0.51,0.396-0.639
				c0.264-0.131,0.45-0.301,0.56-0.514c0.11-0.213,0.235-0.375,0.377-0.484s0.238-0.254,0.29-0.436l0.154-0.232
				c0.052-0.051,0.078-0.148,0.078-0.291l0.367-0.697c0.076-0.322,0.115-0.574,0.115-0.754c0-0.271-0.139-0.484-0.415-0.639
				c-0.277-0.156-0.415-0.459-0.415-0.91c0-0.297,0.15-0.572,0.453-0.824c0.303-0.25,0.454-0.402,0.454-0.453
				c0-0.078-0.038-0.117-0.116-0.117c-0.038,0-0.187,0.053-0.443,0.154c-0.09,0.182-0.548,0.42-1.372,0.717
				c-0.271-0.129-0.418-0.193-0.444-0.193c-0.077,0-0.155,0.078-0.232,0.232s-0.154,0.266-0.231,0.33h-0.251
				c-0.025,0-0.109,0.084-0.251,0.25c-0.142,0.168-0.322,0.252-0.541,0.252l-0.231,0.232c0.013,0.207-0.116,0.42-0.387,0.639
				l-0.213,0.252c-0.129,0.154-0.296,0.336-0.502,0.543l-0.348,0.871c-0.142,0.336-0.213,0.588-0.213,0.754
				c-0.038,0.078-0.125,0.158-0.261,0.242s-0.203,0.191-0.203,0.32c0,0.025,0.045,0.09,0.135,0.193
				c0.091,0.104,0.136,0.182,0.136,0.232l-0.077,0.252l-0.077,0.717L337.503,273.09z"/>
			<path fill="#D68500" d="M364.788,270.805h0.077l0.194,0.078c0.025,0,0.051-0.014,0.077-0.039c0-0.219,0.104-0.406,0.311-0.563
				c0.065-0.244,0.211-0.432,0.438-0.561c0.226-0.129,0.585-0.342,1.077-0.639l0.484-0.426l0.233-0.117l0.154-0.193
				c0.143-0.168,0.278-0.252,0.408-0.252c0.194,0,0.291,0.072,0.291,0.213l-0.175,0.389l0.078,0.639
				c0,0.232-0.081,0.438-0.243,0.619c-0.16,0.182-0.41,0.445-0.745,0.793l-0.989,1.047l-0.524,0.27
				c-0.129,0.078-0.245,0.168-0.349,0.271l-0.756,0.639c0,0.182-0.058,0.316-0.174,0.406h-0.311l-0.155,0.078
				c-0.091,0.246-0.355,0.484-0.795,0.717l-0.271,0.193c-0.091,0.078-0.174,0.117-0.252,0.117l-0.543-0.078l-0.368,0.078
				c-0.104,0-0.242-0.053-0.417-0.156s-0.352-0.184-0.533-0.242c-0.181-0.057-0.41-0.297-0.688-0.715
				c-0.278-0.42-0.43-0.695-0.456-0.824c0-0.051-0.029-0.139-0.087-0.262c-0.059-0.121-0.088-0.195-0.088-0.223
				c0-0.025,0.059-0.154,0.175-0.387v-0.039c0-0.037-0.035-0.129-0.106-0.27c-0.071-0.143-0.106-0.316-0.106-0.523
				c0-0.117-0.039-0.264-0.116-0.445c0.103-0.104,0.154-0.182,0.154-0.232s-0.02-0.125-0.058-0.223
				c-0.039-0.098-0.059-0.172-0.059-0.223l0.116-0.949l-0.077-0.484l0.039-0.463c0-0.271-0.116-0.408-0.348-0.408
				c-0.103,0-0.231,0.072-0.386,0.213l-0.135,0.039c-0.348,0.168-0.592,0.307-0.733,0.416c-0.142,0.111-0.289,0.166-0.443,0.166
				c-0.077,0.076-0.226,0.148-0.443,0.213l-0.154,0.115c-0.052,0.053-0.155,0.129-0.31,0.232c0,0.039-0.241,0.256-0.723,0.648
				c-0.483,0.395-0.917,0.766-1.303,1.113c-0.387,0.35-0.666,0.539-0.84,0.572c-0.173,0.031-0.26,0.195-0.26,0.492
				c0,0.053-0.116,0.156-0.348,0.311c-0.025,0-0.16,0.143-0.405,0.426c-0.206-0.154-0.321-0.232-0.348-0.232
				c-0.168,0-0.291,0.213-0.368,0.639c-0.077,0.168-0.284,0.271-0.621,0.311c-0.026,0.014-0.071,0.109-0.137,0.289l-0.077,0.078
				h-0.194c-0.025,0-0.116,0.074-0.271,0.223s-0.291,0.242-0.407,0.281c-0.169,0.348-0.311,0.523-0.427,0.523
				c-0.053,0-0.127-0.027-0.224-0.078s-0.217-0.098-0.358-0.137c-0.143-0.037-0.301-0.195-0.475-0.473
				c-0.175-0.277-0.262-0.514-0.262-0.707c0-1.434,0.278-2.215,0.833-2.344l0.038-0.076v-0.156c0-0.166,0.074-0.287,0.223-0.357
				s0.301-0.213,0.456-0.426c0.154-0.213,0.258-0.332,0.309-0.357h0.252c0.052,0,0.078-0.137,0.078-0.408
				c0-0.076,0.031-0.146,0.097-0.213c0.064-0.064,0.104-0.158,0.116-0.279c0.013-0.123,0.106-0.322,0.28-0.602
				c0.174-0.277,0.262-0.441,0.262-0.492l-0.039-0.078c-0.323,0.297-0.555,0.459-0.697,0.484c-0.142,0.025-0.335,0.213-0.581,0.561
				l-0.31-0.059c-0.542,0.4-0.879,0.627-1.008,0.678c-0.129,0.053-0.272,0.201-0.428,0.445c0,0.078-0.045,0.131-0.135,0.156
				c-0.092,0.025-0.26,0.129-0.506,0.309h-0.116c-0.323,0-0.485-0.232-0.485-0.697l0.406-1.104c0.116-0.348,0.39-0.641,0.822-0.881
				c0.432-0.238,0.796-0.467,1.093-0.688c0.296-0.219,0.593-0.334,0.89-0.348l0.136-0.193c0.438-0.168,0.734-0.432,0.89-0.795
				c0.155-0.359,0.367-0.541,0.639-0.541c0.709,0,1.251,0.262,1.625,0.783c0.373,0.523,0.561,0.939,0.561,1.25l0.038,0.521
				c0,0.182-0.038,0.434-0.115,0.756c-0.155,0.232-0.232,0.406-0.232,0.523c0,0.104,0.064,0.154,0.193,0.154
				c0.078,0,0.181-0.055,0.31-0.164s0.273-0.211,0.436-0.301c0.161-0.09,0.254-0.168,0.28-0.232
				c0.129-0.309,0.354-0.521,0.677-0.639c0.322-0.117,0.522-0.213,0.6-0.291l0.193-0.154l0.155-0.291
				c0.348-0.154,0.579-0.297,0.696-0.426c0.115-0.129,0.271-0.213,0.464-0.252c0.193-0.039,0.413-0.154,0.658-0.348l0.29-0.078
				l0.271-0.154c0.026-0.025,0.104-0.059,0.232-0.098c0.129-0.037,0.318-0.105,0.57-0.203c0.252-0.096,0.423-0.145,0.513-0.145
				c0.657,0,1.177,0.266,1.557,0.793c0.381,0.529,0.571,0.957,0.571,1.279l-0.039,0.348l0.078,0.523v0.076l-0.155,1.066l0.039,0.367
				c0,0.607-0.13,1.025-0.388,1.258c-0.064,0.027-0.097,0.092-0.097,0.193v0.176l0.388,0.813c0.115,0.283,0.206,0.426,0.271,0.426
				l0.621-0.174c0.181-0.051,0.329-0.188,0.446-0.406c0.104-0.053,0.284-0.207,0.543-0.465
				C364.497,270.909,364.62,270.805,364.788,270.805z"/>
			<path fill="#D68500" d="M365.672,279.79l0.194-0.426l0.115-0.484c0-0.053,0.063-0.129,0.185-0.232
				c0.123-0.104,0.184-0.193,0.184-0.271c0.31-1.201,0.627-2.02,0.949-2.459l0.464-1.162c0.052-0.258,0.172-0.465,0.358-0.619
				c0.188-0.154,0.28-0.291,0.28-0.406c0-0.078-0.131-0.191-0.396-0.338c-0.264-0.148-0.396-0.287-0.396-0.418
				c0-0.129,0.426-0.379,1.277-0.754c0-0.361,0.194-0.742,0.581-1.143c0.09-0.078,0.136-0.168,0.136-0.271
				c0-0.309,0.064-0.561,0.193-0.754l0.155-0.445c0.052-0.156,0.157-0.326,0.319-0.514c0.161-0.188,0.242-0.371,0.242-0.553v-0.154
				c-0.168-0.012-0.407,0.207-0.717,0.658c-0.322,0-0.587,0.238-0.794,0.717c-0.103,0.271-0.342,0.445-0.716,0.521
				c-0.167,0.311-0.445,0.523-0.833,0.641c-0.274-0.168-0.41-0.311-0.41-0.426l0.174-1.201c0-0.271,0.659-0.949,1.977-2.033
				c0.078,0,0.33-0.244,0.757-0.736l1.066-1.199c0.581-0.582,1.02-1.008,1.316-1.277c0.556-0.879,0.833-1.459,0.833-1.744
				c0.258-0.232,0.48-0.713,0.668-1.441s0.361-1.258,0.522-1.588s0.256-0.57,0.281-0.727c0.516-1.561,0.897-2.543,1.143-2.943
				l0.193-0.639l0.29-0.232c0.026-0.064,0.052-0.264,0.077-0.6c0.143-0.051,0.291-0.336,0.446-0.852
				c0.154-0.516,0.31-0.871,0.465-1.064c0.154-0.193,0.258-0.398,0.309-0.611c0.052-0.213,0.211-0.426,0.476-0.639
				c0.264-0.213,0.531-0.318,0.803-0.318c0.09,0,0.242,0.133,0.455,0.396c0.213,0.266,0.342,0.568,0.388,0.91
				c0.045,0.342,0.08,0.574,0.106,0.697c0.025,0.123,0.038,0.287,0.038,0.492l0.039,0.563c0,0.104-0.052,0.432-0.155,0.988
				c-0.104,0.555-0.178,0.951-0.223,1.189c-0.046,0.24-0.177,0.396-0.396,0.475s-0.329,0.154-0.329,0.232s0.052,0.139,0.154,0.184
				c0.104,0.045,0.155,0.082,0.155,0.107c0,0.051-0.074,0.223-0.223,0.512c-0.148,0.291-0.287,0.475-0.416,0.553
				c0.077,0.154,0.116,0.246,0.116,0.271c0,0.064-0.094,0.268-0.281,0.609c-0.187,0.342-0.339,0.57-0.455,0.688
				c-0.116,0.115-0.232,0.381-0.349,0.793c-0.115,0.414-0.412,0.762-0.891,1.047c-0.181,0.18-0.338,0.477-0.474,0.891
				c-0.136,0.412-0.332,0.67-0.591,0.773l-0.252,0.367v0.078c0,0.193-0.064,0.406-0.193,0.639s-0.259,0.508-0.387,0.824
				c-0.13,0.316-0.252,0.525-0.368,0.629c-0.052,0.297-0.143,0.564-0.271,0.803s-0.206,0.449-0.231,0.629l-0.137,0.156
				c-0.258,0.037-0.386,0.16-0.386,0.367l0.076,0.426c0,0.014-0.116,0.227-0.349,0.639l-0.077,0.387
				c-0.064,0.324-0.188,0.539-0.367,0.648c-0.181,0.111-0.297,0.354-0.349,0.727l-0.078,0.465c0,0.027,0.013,0.064,0.039,0.117
				c0.025,0,0.104-0.072,0.232-0.213c0.181,0.064,0.283,0.096,0.309,0.096c0.078,0,0.152-0.055,0.224-0.164
				c0.07-0.109,0.184-0.191,0.338-0.242l0.077-0.039c0.064-0.18,0.161-0.277,0.29-0.291c0.129-0.012,0.239-0.072,0.329-0.184
				c0.091-0.109,0.162-0.164,0.213-0.164c0.026,0,0.116,0.051,0.271,0.154h0.039l0.174-0.076l-0.039-0.311
				c0-0.129,0.058-0.213,0.175-0.252c0.116-0.039,0.199-0.104,0.251-0.193l0.716-0.465c0.31-0.129,0.538-0.268,0.687-0.416
				s0.31-0.254,0.483-0.32c0.175-0.064,0.31-0.145,0.406-0.24c0.098-0.098,0.313-0.158,0.649-0.186
				c0.373-0.322,0.664-0.541,0.87-0.658l0.154-0.213c0.026-0.025,0.077-0.051,0.154-0.076c0.078-0.027,0.178-0.104,0.301-0.232
				c0.122-0.129,0.235-0.193,0.339-0.193c0.258,0,0.387,0.129,0.387,0.387c0,0.426-0.193,0.768-0.58,1.025l-0.039,0.059
				c-0.064,0.516-0.226,0.773-0.483,0.773c-0.052,0-0.142,0.111-0.271,0.33c-0.143-0.025-0.226-0.039-0.252-0.039
				c-0.103,0.154-0.231,0.297-0.387,0.426h-0.115c-0.207,0-1.038,0.602-2.495,1.801c-0.077,0.078-0.142,0.129-0.193,0.154
				l-0.368-0.037c0,0.025-0.077,0.154-0.231,0.387c-0.194,0.064-0.406,0.188-0.639,0.367c-0.232,0.182-0.403,0.297-0.513,0.35
				c-0.11,0.051-0.21,0.139-0.3,0.26c-0.091,0.123-0.214,0.211-0.368,0.262l-0.252,0.232h-0.116c-0.104,0-0.229,0.064-0.378,0.193
				c-0.148,0.131-0.223,0.252-0.223,0.369c0,0.051,0.059,0.154,0.175,0.309c0.103-0.076,0.465,0.314,1.084,1.172
				c0.62,0.859,0.929,1.682,0.929,2.469c0,0.58-0.087,0.959-0.261,1.133c-0.175,0.174-0.262,0.301-0.262,0.377
				c0,0.053,0.02,0.201,0.059,0.445v0.078c0,0.129-0.074,0.205-0.223,0.232c-0.149,0.025-0.236,0.076-0.261,0.154v0.484
				l-0.078,0.232c-0.168,0.09-0.343,0.393-0.523,0.91c-0.387,0.4-0.665,0.625-0.832,0.678l-0.039,0.076l0.039,0.523
				c0,0.129-0.059,0.232-0.175,0.311c-0.116,0.076-0.274,0.242-0.475,0.492c-0.2,0.252-0.403,0.43-0.61,0.533
				c-0.052,0.244-0.151,0.42-0.3,0.523c-0.148,0.102-0.3,0.25-0.455,0.445l-0.116,0.076c-0.116,0.027-0.227,0.168-0.329,0.426
				l-0.155,0.039c-0.181,0.311-0.358,0.533-0.532,0.668c-0.175,0.137-0.3,0.262-0.378,0.379l-0.31,0.193
				c-0.116,0.232-0.354,0.496-0.717,0.793c-0.025,0-0.077-0.039-0.154-0.115h-0.059c-0.052,0-0.098,0.051-0.136,0.154
				s-0.109,0.199-0.213,0.291c-0.104,0.09-0.206,0.219-0.31,0.387l-0.078,0.076c-0.167,0-0.432,0.227-0.793,0.678
				c-0.245,0.053-0.458,0.143-0.639,0.271c-0.271,0.311-0.458,0.465-0.562,0.465c-0.013,0-0.155-0.105-0.426-0.318
				c-0.271-0.213-0.407-0.553-0.407-1.018c0-0.115-0.077-0.252-0.232-0.406c-0.025-0.143-0.052-0.348-0.077-0.619v-0.174
				c0-0.156,0.052-0.336,0.154-0.543l0.117-0.406c0.025-0.104,0.064-0.188,0.115-0.252c0.052-0.064,0.127-0.248,0.223-0.553
				c0.097-0.303,0.21-0.604,0.339-0.9l0.039-0.193c0.143-0.619,0.259-0.922,0.349-0.91c0.077-0.193,0.154-0.451,0.232-0.773
				c0.077-0.322,0.133-0.588,0.164-0.795c0.032-0.205,0.126-0.373,0.281-0.502L365.672,279.79z M369.685,276.071l0.076,0.834
				c0,0.051-0.105,0.299-0.318,0.744s-0.353,0.805-0.416,1.076c-0.065,0.27-0.207,0.406-0.427,0.406h-0.193
				c-0.025,0.051-0.039,0.104-0.039,0.154l0.039,0.426c0,0.168-0.046,0.465-0.136,0.891s-0.219,0.697-0.387,0.813l-0.116,0.137
				c-0.025,0.193-0.126,0.5-0.3,0.92c-0.175,0.418-0.32,0.748-0.436,0.986c-0.116,0.238-0.207,0.535-0.271,0.891
				s-0.148,0.584-0.252,0.688c-0.077,0.361-0.154,0.662-0.232,0.9c-0.077,0.238-0.174,0.559-0.29,0.959
				c0.025,0.051,0.064,0.076,0.116,0.076c0.077,0,0.174-0.141,0.29-0.426c0.053-0.051,0.139-0.086,0.262-0.105
				c0.122-0.02,0.229-0.158,0.319-0.416l0.039-0.078c0.142-0.025,0.245-0.1,0.309-0.223c0.065-0.123,0.137-0.197,0.214-0.223
				s0.168-0.09,0.271-0.193l0.137-0.039c0.051-0.025,0.096-0.098,0.135-0.213s0.084-0.207,0.136-0.271h0.271l0.078-0.039
				c0.103-0.412,0.229-0.68,0.377-0.803s0.262-0.268,0.339-0.436s0.172-0.297,0.281-0.387c0.109-0.092,0.19-0.258,0.242-0.504
				c0.232-0.271,0.381-0.484,0.445-0.639s0.154-0.285,0.271-0.387l0.038-0.137l-0.077-0.232v-0.076c0-0.104,0.151-0.361,0.455-0.775
				c0.303-0.412,0.494-0.758,0.571-1.035c0.078-0.277,0.148-0.5,0.214-0.668c0.064-0.168,0.116-0.359,0.154-0.572
				c0.039-0.213,0.109-0.387,0.214-0.521c0.103-0.137,0.154-0.32,0.154-0.553c0-0.4-0.181-0.902-0.542-1.51
				c-0.026-0.025-0.052-0.104-0.077-0.232c-0.026-0.129-0.152-0.281-0.378-0.455c-0.227-0.174-0.392-0.262-0.495-0.262l-0.154,0.078
				c-0.026,0.025-0.106,0.064-0.242,0.115c-0.136,0.053-0.203,0.176-0.203,0.369v0.076l0.039,0.426
				C370.188,275.743,370.02,275.891,369.685,276.071z"/>
			<path fill="#D68500" d="M376.878,267.901l0.311-0.271h0.116c0.09,0,0.226-0.096,0.406-0.289l0.194-0.078
				c0.258-0.387,0.484-0.613,0.678-0.678l0.311-0.232c0.051-0.051,0.126-0.096,0.223-0.135s0.252-0.166,0.465-0.379
				s0.385-0.318,0.515-0.318c0.128,0,0.232,0.014,0.31,0.039c0.077-0.156,0.232-0.307,0.465-0.455s0.42-0.326,0.563-0.533
				l0.252-0.115c0.207-0.104,0.391-0.236,0.553-0.398c0.161-0.16,0.37-0.24,0.629-0.24c0.375,0,0.766,0.189,1.173,0.57
				c0.406,0.381,0.609,0.746,0.609,1.094l-0.329,1.51c-0.219,1.111-0.465,1.691-0.735,1.742l-0.078,0.408
				c-0.181,0.129-0.271,0.232-0.271,0.309l0.116,0.465c0,0.064-0.071,0.162-0.213,0.291c-0.026,0-0.039,0.039-0.039,0.115v0.795
				c0,0.143-0.091,0.258-0.271,0.348c0.026,0.025,0.064,0.053,0.116,0.078c0.078-0.078,0.253-0.117,0.523-0.117l0.31,0.039
				l0.425-0.426c0.091-0.025,0.216-0.088,0.377-0.184c0.161-0.098,0.436-0.223,0.822-0.377l2.533-1.938
				c0.348-0.348,0.611-0.521,0.793-0.521c0.192,0,0.29,0.123,0.29,0.367c0,0.285-0.056,0.52-0.165,0.707s-0.21,0.412-0.3,0.678
				c-0.091,0.264-0.197,0.447-0.32,0.551c-0.122,0.104-0.222,0.217-0.3,0.34c-0.077,0.123-0.287,0.299-0.629,0.531
				s-0.632,0.469-0.871,0.707c-0.238,0.24-0.436,0.41-0.59,0.514l-0.833,0.6l-0.116,0.193c-0.025,0.027-0.145,0.082-0.358,0.166
				c-0.212,0.084-0.403,0.189-0.57,0.318l-0.349,0.193c-0.077,0.053-0.203,0.084-0.377,0.098c-0.175,0.012-0.326,0.086-0.455,0.223
				c-0.13,0.135-0.232,0.203-0.31,0.203l-0.291-0.039l-0.387,0.117c-0.22,0-0.487-0.133-0.804-0.398
				c-0.316-0.264-0.475-0.545-0.475-0.842v-0.115l0.039-0.271c0-0.051-0.039-0.184-0.116-0.396s-0.116-0.332-0.116-0.359l0.039-0.27
				l-0.039-0.117c0-0.348,0.026-0.568,0.077-0.658c0.052-0.09,0.091-0.217,0.116-0.377c0.025-0.162,0.052-0.295,0.078-0.398
				l0.097-0.482c0.052-0.156,0.116-0.258,0.193-0.311c0.026-0.104,0.078-0.277,0.155-0.523l0.077-0.348l0.194-0.271
				c0.103-0.104,0.164-0.242,0.184-0.416s0.087-0.357,0.203-0.551c0.116-0.195,0.174-0.311,0.174-0.35
				c0-0.154-0.077-0.232-0.232-0.232c-0.052,0-0.212,0.104-0.483,0.311l-0.35-0.117c-0.025,0-0.097,0.064-0.213,0.193
				c0,0.053-0.058,0.092-0.174,0.117s-0.227,0.123-0.329,0.291l-0.155,0.037l-0.252-0.115h-0.077c-0.129,0-0.207,0.143-0.232,0.426
				c-0.142,0.207-0.329,0.342-0.562,0.406l-0.426,0.117c-0.143,0.051-0.246,0.168-0.311,0.348c-0.064,0.182-0.193,0.346-0.387,0.494
				c-0.194,0.148-0.323,0.223-0.388,0.223c-0.361,0-0.542-0.201-0.542-0.6l0.155-0.91L376.878,267.901z M385.241,258.221
				l-0.116-0.756v-0.115c0-0.607,0.206-0.943,0.62-1.008c0.09-0.012,0.361-0.096,0.813-0.252c0.232,0.053,0.474,0.256,0.726,0.611
				c0.252,0.354,0.378,0.668,0.378,0.938c0,0.027-0.02,0.084-0.059,0.176c-0.039,0.09-0.064,0.26-0.077,0.512
				s-0.139,0.473-0.378,0.658c-0.239,0.188-0.493,0.281-0.765,0.281c-0.182,0-0.409-0.125-0.688-0.377
				C385.419,258.637,385.268,258.415,385.241,258.221z"/>
			<path fill="#D68500" d="M403.604,269.606l0.309-0.271c0.193,0,0.309-0.088,0.348-0.262s0.177-0.313,0.415-0.416
				s0.46-0.313,0.666-0.629s0.418-0.475,0.638-0.475c0.076,0,0.166,0.064,0.27,0.193c0.103,0.129,0.154,0.232,0.154,0.311
				c0,0.426-0.129,0.863-0.388,1.316l-0.077,0.541l-0.135,0.252c-0.193,0.104-0.319,0.213-0.377,0.33
				c-0.059,0.115-0.21,0.258-0.456,0.426l-0.192,0.27c-0.285,0.092-0.475,0.24-0.571,0.445c-0.098,0.207-0.232,0.324-0.406,0.35
				c-0.175,0.025-0.365,0.154-0.571,0.387c-0.129,0.064-0.284,0.123-0.465,0.174l-0.039,0.193c-0.129,0.131-0.332,0.232-0.609,0.311
				s-0.483,0.152-0.619,0.223s-0.229,0.105-0.28,0.105c-0.245,0-0.472-0.047-0.678-0.145c-0.207-0.096-0.42-0.158-0.639-0.184
				c-0.077-0.078-0.123-0.162-0.136-0.252s-0.077-0.209-0.193-0.357s-0.174-0.352-0.174-0.609l0.077-0.369
				c0-0.051-0.032-0.115-0.097-0.193c-0.065-0.078-0.097-0.143-0.097-0.193s0.012-0.09,0.038-0.117
				c0.026-0.025,0.039-0.064,0.039-0.115c0-0.064-0.013-0.135-0.039-0.213s-0.038-0.143-0.038-0.193l0.116-0.949
				c0-0.078-0.026-0.115-0.078-0.115s-0.145,0.064-0.28,0.193s-0.294,0.193-0.475,0.193c-0.104,0.076-0.188,0.238-0.252,0.484
				c-0.104,0.129-0.232,0.244-0.388,0.348l-0.077,0.117c-0.026,0.09-0.123,0.164-0.29,0.223c-0.168,0.057-0.284,0.131-0.349,0.223
				l-0.193,0.193l-0.368-0.039c-0.025,0.025-0.098,0.139-0.213,0.338c-0.116,0.201-0.266,0.365-0.445,0.494l-1.472,1.201
				c-0.155,0.104-0.381,0.232-0.679,0.387l-0.115,0.115c-1.033,0.686-1.763,1.027-2.188,1.027c-0.349,0-0.755-0.098-1.22-0.291
				s-0.716-0.426-0.756-0.697l-0.192-0.793c-0.117-0.182-0.175-0.432-0.175-0.756c0-0.154,0.013-0.258,0.038-0.309v-0.117
				l-0.038-0.639c0-0.154,0.122-0.232,0.367-0.232l-0.038-0.523c0-0.051,0.113-0.254,0.339-0.609s0.378-0.559,0.455-0.609
				l0.193-0.252c-0.013-0.154,0.077-0.32,0.271-0.494c0.193-0.174,0.349-0.352,0.465-0.531c0.116-0.182,0.337-0.381,0.659-0.602
				l0.581-0.58c0.453-0.451,0.944-0.813,1.475-1.084c0.077-0.025,0.235-0.154,0.474-0.387c0.24-0.232,0.512-0.404,0.815-0.514
				c0.303-0.109,0.601-0.248,0.891-0.416c0.291-0.168,0.521-0.252,0.688-0.252h0.155c0.052,0,0.394-0.162,1.027-0.484h0.116
				c0.052,0,0.175,0.053,0.368,0.154h0.039l0.311-0.154c0.051-0.025,0.116-0.039,0.193-0.039c0.801,0,1.24,0.555,1.318,1.666
				c0.025,0.232,0.091,0.348,0.193,0.348c0.129,0,0.313-0.234,0.553-0.707c0.239-0.471,0.746-0.705,1.521-0.705
				c0.556,0,0.833,0.354,0.833,1.064c0,0.838-0.374,1.633-1.123,2.381c-0.052,0.104-0.091,0.219-0.116,0.35l-0.271,0.793v0.039
				c0,0.076-0.056,0.184-0.165,0.318c-0.11,0.137-0.165,0.256-0.165,0.359l0.039,0.484l-0.078,0.541
				c0,0.246,0.045,0.406,0.137,0.484c0.411-0.104,0.71-0.273,0.896-0.514c0.187-0.238,0.318-0.371,0.396-0.396l0.193-0.078
				C403.315,269.895,403.45,269.735,403.604,269.606z M397.176,269.606c0.052-0.285,0.21-0.502,0.474-0.65
				c0.266-0.146,0.424-0.299,0.476-0.455c0.244-0.18,0.597-0.502,1.055-0.967s0.688-0.748,0.688-0.852
				c0-0.039-0.025-0.059-0.077-0.059h-0.039l-0.155,0.098l-0.349-0.039l-0.367,0.039l-0.271-0.137l-0.252,0.039l-0.387-0.078
				c-0.207,0-0.385,0.043-0.532,0.127c-0.148,0.084-0.433,0.178-0.853,0.281c-0.42,0.102-0.797,0.279-1.133,0.531
				s-0.581,0.377-0.736,0.377c-0.09,0.195-0.394,0.473-0.909,0.834c-0.311,0.104-0.511,0.328-0.601,0.678
				c-0.337,0.27-0.504,0.426-0.504,0.463l-0.135,0.33c-0.104,0.09-0.233,0.164-0.388,0.223c-0.155,0.059-0.245,0.193-0.271,0.406
				c-0.025,0.213-0.113,0.406-0.261,0.582c-0.148,0.174-0.223,0.313-0.223,0.416c0,0.633,0.122,0.947,0.367,0.947
				c0.104,0,0.319-0.066,0.649-0.203c0.329-0.135,0.52-0.229,0.57-0.279c0.052-0.053,0.156-0.104,0.311-0.156l0.368-0.193
				c0.052-0.051,0.109-0.084,0.174-0.096c0.064-0.014,0.129-0.055,0.193-0.127c0.064-0.07,0.182-0.148,0.349-0.232
				c0.168-0.084,0.298-0.195,0.388-0.338c0.219-0.129,0.574-0.33,1.065-0.602l0.406-0.309c0.283-0.129,0.458-0.238,0.522-0.33
				C396.853,269.786,396.981,269.696,397.176,269.606z"/>
			<path fill="#D68500" d="M422.91,270.805h0.077l0.194,0.078c0.026,0,0.052-0.014,0.077-0.039c0-0.219,0.104-0.406,0.311-0.563
				c0.065-0.244,0.211-0.432,0.437-0.561c0.227-0.129,0.586-0.342,1.078-0.639l0.484-0.426l0.233-0.117l0.155-0.193
				c0.143-0.168,0.277-0.252,0.408-0.252c0.193,0,0.29,0.072,0.29,0.213l-0.175,0.389l0.078,0.639c0,0.232-0.081,0.438-0.242,0.619
				s-0.41,0.445-0.747,0.793l-0.988,1.047l-0.523,0.27c-0.13,0.078-0.246,0.168-0.349,0.271l-0.757,0.639
				c0,0.182-0.058,0.316-0.174,0.406h-0.311l-0.155,0.078c-0.091,0.246-0.355,0.484-0.794,0.717l-0.272,0.193
				c-0.091,0.078-0.174,0.117-0.251,0.117l-0.543-0.078l-0.368,0.078c-0.104,0-0.243-0.053-0.417-0.156
				c-0.175-0.104-0.353-0.184-0.533-0.242c-0.182-0.057-0.411-0.297-0.688-0.715c-0.278-0.42-0.43-0.695-0.456-0.824
				c0-0.051-0.029-0.139-0.087-0.262c-0.059-0.121-0.087-0.195-0.087-0.223c0-0.025,0.058-0.154,0.174-0.387v-0.039
				c0-0.037-0.035-0.129-0.106-0.27c-0.071-0.143-0.106-0.316-0.106-0.523c0-0.117-0.039-0.264-0.116-0.445
				c0.104-0.104,0.155-0.182,0.155-0.232s-0.02-0.125-0.059-0.223c-0.038-0.098-0.058-0.172-0.058-0.223l0.116-0.949l-0.077-0.484
				l0.038-0.463c0-0.271-0.116-0.408-0.347-0.408c-0.104,0-0.231,0.072-0.387,0.213l-0.134,0.039
				c-0.348,0.168-0.593,0.307-0.734,0.416c-0.142,0.111-0.289,0.166-0.443,0.166c-0.077,0.076-0.226,0.148-0.443,0.213l-0.155,0.115
				c-0.051,0.053-0.153,0.129-0.308,0.232c0,0.039-0.242,0.256-0.724,0.648c-0.482,0.395-0.917,0.766-1.303,1.113
				c-0.386,0.35-0.666,0.539-0.839,0.572c-0.174,0.031-0.261,0.195-0.261,0.492c0,0.053-0.116,0.156-0.348,0.311
				c-0.025,0-0.16,0.143-0.405,0.426c-0.205-0.154-0.321-0.232-0.347-0.232c-0.168,0-0.291,0.213-0.369,0.639
				c-0.077,0.168-0.284,0.271-0.621,0.311c-0.026,0.014-0.071,0.109-0.136,0.289l-0.077,0.078h-0.194
				c-0.026,0-0.117,0.074-0.272,0.223s-0.291,0.242-0.407,0.281c-0.168,0.348-0.311,0.523-0.427,0.523
				c-0.052,0-0.127-0.027-0.224-0.078s-0.217-0.098-0.358-0.137c-0.143-0.037-0.301-0.195-0.475-0.473s-0.262-0.514-0.262-0.707
				c0-1.434,0.277-2.215,0.833-2.344l0.039-0.076v-0.156c0-0.166,0.074-0.287,0.223-0.357c0.147-0.07,0.3-0.213,0.455-0.426
				c0.154-0.213,0.258-0.332,0.309-0.357h0.253c0.051,0,0.077-0.137,0.077-0.408c0-0.076,0.032-0.146,0.097-0.213
				c0.064-0.064,0.104-0.158,0.116-0.279c0.013-0.123,0.106-0.322,0.281-0.602c0.174-0.277,0.261-0.441,0.261-0.492l-0.039-0.078
				c-0.322,0.297-0.555,0.459-0.696,0.484c-0.143,0.025-0.336,0.213-0.581,0.561l-0.31-0.059c-0.543,0.4-0.88,0.627-1.009,0.678
				c-0.13,0.053-0.272,0.201-0.427,0.445c0,0.078-0.046,0.131-0.137,0.156s-0.259,0.129-0.505,0.309h-0.116
				c-0.323,0-0.485-0.232-0.485-0.697l0.406-1.104c0.116-0.348,0.391-0.641,0.822-0.881c0.433-0.238,0.796-0.467,1.093-0.688
				c0.297-0.219,0.594-0.334,0.89-0.348l0.136-0.193c0.438-0.168,0.734-0.432,0.89-0.795c0.155-0.359,0.368-0.541,0.639-0.541
				c0.709,0,1.251,0.262,1.625,0.783c0.374,0.523,0.561,0.939,0.561,1.25l0.038,0.521c0,0.182-0.038,0.434-0.115,0.756
				c-0.154,0.232-0.232,0.406-0.232,0.523c0,0.104,0.064,0.154,0.193,0.154c0.077,0,0.181-0.055,0.31-0.164s0.274-0.211,0.436-0.301
				s0.255-0.168,0.28-0.232c0.129-0.309,0.354-0.521,0.677-0.639c0.323-0.117,0.522-0.213,0.601-0.291l0.193-0.154l0.154-0.291
				c0.348-0.154,0.58-0.297,0.696-0.426s0.271-0.213,0.464-0.252c0.194-0.039,0.413-0.154,0.659-0.348l0.289-0.078l0.271-0.154
				c0.026-0.025,0.104-0.059,0.232-0.098c0.129-0.037,0.319-0.105,0.57-0.203c0.252-0.096,0.423-0.145,0.514-0.145
				c0.657,0,1.176,0.266,1.556,0.793c0.381,0.529,0.571,0.957,0.571,1.279l-0.038,0.348l0.077,0.523v0.076l-0.155,1.066l0.039,0.367
				c0,0.607-0.129,1.025-0.387,1.258c-0.065,0.027-0.097,0.092-0.097,0.193v0.176l0.387,0.813c0.116,0.283,0.206,0.426,0.271,0.426
				l0.621-0.174c0.181-0.051,0.33-0.188,0.446-0.406c0.104-0.053,0.284-0.207,0.543-0.465
				C422.619,270.909,422.742,270.805,422.91,270.805z"/>
			<path fill="#D68500" d="M429.649,272.586l-0.31,0.154c-0.064-0.025-0.136-0.037-0.213-0.037c-0.052,0-0.29,0.051-0.717,0.154
				c-0.025,0.025-0.077,0.039-0.154,0.039c-0.078,0-0.182-0.1-0.311-0.301c-0.129-0.199-0.193-0.365-0.193-0.494
				s0.123-0.406,0.368-0.832l0.658-1.143c0.155-0.322,0.252-0.568,0.29-0.736c0.039-0.166,0.101-0.318,0.185-0.453
				c0.083-0.137,0.139-0.25,0.165-0.34c0.025-0.09,0.058-0.184,0.096-0.281c0.039-0.096,0.071-0.234,0.098-0.416
				c0.025-0.18,0.09-0.432,0.193-0.754v-0.039c0-0.078-0.026-0.117-0.077-0.117h-0.155c-0.052-0.051-0.09-0.076-0.116-0.076
				l-1.198,1.373c-0.438,0.414-0.792,0.711-1.063,0.891c-0.271,0.182-0.471,0.385-0.6,0.611c-0.129,0.225-0.245,0.338-0.348,0.338
				c-0.374,0-0.562-0.303-0.562-0.91c0-0.271,0.046-0.451,0.136-0.541c0.091-0.09,0.232-0.297,0.425-0.619
				c0-0.027,0.09-0.084,0.271-0.176c0.18-0.09,0.325-0.209,0.434-0.357c0.11-0.148,0.217-0.236,0.319-0.262
				c0.104-0.025,0.174-0.084,0.212-0.174c0.039-0.09,0.12-0.182,0.242-0.271s0.215-0.209,0.279-0.357
				c0.065-0.148,0.171-0.268,0.319-0.359c0.147-0.09,0.271-0.219,0.366-0.387c0.097-0.168,0.325-0.311,0.687-0.426l1.139-1.064
				c0.476-0.594,0.843-0.891,1.101-0.891h0.212c0.078,0,0.175-0.014,0.291-0.039c0.115-0.025,0.213-0.039,0.29-0.039
				c0.297,0,0.584,0.182,0.861,0.543c0.278,0.361,0.416,0.723,0.416,1.084c0,0.426-0.135,0.762-0.406,1.006
				c-0.606,1.213-0.909,1.988-0.909,2.324c0,0.143-0.084,0.287-0.252,0.436s-0.252,0.326-0.252,0.531
				c-0.064,0.156-0.161,0.311-0.29,0.465c0,0.143-0.046,0.311-0.136,0.504c-0.091,0.193-0.136,0.303-0.136,0.33
				c0,0.051,0.025,0.076,0.077,0.076c0.155,0,0.391-0.076,0.708-0.232c0.317-0.154,0.593-0.232,0.826-0.232
				c0.22,0,0.44-0.057,0.661-0.174l0.485-0.367c0.155-0.117,0.362-0.174,0.622-0.174l0.312,0.037c0.051,0,0.15-0.055,0.3-0.164
				c0.147-0.109,0.448-0.248,0.9-0.416c0.451-0.168,0.729-0.252,0.832-0.252c0.71,0,1.065,0.305,1.065,0.91
				c0,0.014-0.039,0.162-0.117,0.445c-0.077,0.283-0.148,0.445-0.213,0.484s-0.168,0.109-0.31,0.213l0.116,0.367
				c-0.232,0.232-0.374,0.549-0.426,0.949l-0.271,0.717c-0.051,0.076-0.077,0.219-0.077,0.426c-0.31,0.607-0.532,1.129-0.667,1.568
				c-0.137,0.438-0.404,1.123-0.804,2.053l-0.039,0.154c0,0.051-0.042,0.104-0.126,0.154c-0.085,0.051-0.126,0.104-0.126,0.154
				c0,0.053,0.232,0.23,0.697,0.533s0.696,0.682,0.696,1.133c0,0.348-0.151,0.629-0.455,0.842c-0.303,0.213-0.642,0.32-1.016,0.32
				c-0.129,0-0.293-0.074-0.492-0.223c-0.2-0.148-0.39-0.223-0.569-0.223c-0.154,0-0.293,0.148-0.415,0.445
				s-0.273,0.451-0.452,0.465l-1.063,1.857l-0.175,0.176c-0.078,0.076-0.2,0.229-0.368,0.453c-0.168,0.227-0.358,0.43-0.572,0.611
				c-0.214,0.18-0.411,0.457-0.592,0.832c-0.284,0.143-0.589,0.406-0.911,0.793c-0.323,0.389-0.578,0.65-0.767,0.785
				c-0.188,0.135-0.332,0.293-0.436,0.475l-0.35,0.445c-0.091,0.051-0.2,0.104-0.329,0.154l-0.078,0.078
				c-0.271,0.219-0.536,0.393-0.795,0.521c-0.116,0.322-0.343,0.543-0.679,0.658c-0.336,0.117-0.618,0.301-0.844,0.553
				c-0.227,0.252-0.446,0.402-0.659,0.455c-0.213,0.051-0.427,0.135-0.64,0.252c-0.213,0.115-0.396,0.174-0.552,0.174
				c-0.31,0-0.603-0.211-0.881-0.629c-0.277-0.42-0.416-0.869-0.416-1.346l0.193-1.221c0.143-0.941,0.568-1.98,1.278-3.117
				l1.103-1.723c0.337-0.232,0.796-0.672,1.378-1.316c0.077-0.104,0.203-0.223,0.378-0.357c0.174-0.137,0.475-0.385,0.901-0.746
				c0.207-0.297,0.455-0.471,0.746-0.523c0.291-0.051,0.585-0.129,0.883-0.232l0.232-0.037c0.051,0,0.097-0.039,0.136-0.117
				c0.206-0.412,1.26-0.773,3.16-1.084c0.349-0.053,0.581-0.223,0.698-0.514c0.116-0.289,0.255-0.59,0.416-0.9
				c0.162-0.309,0.243-0.549,0.243-0.715c0.232-0.232,0.374-0.498,0.425-0.795l0.117-0.328c0.116-0.129,0.174-0.232,0.174-0.311
				l-0.039-0.35c0.259-0.426,0.389-0.852,0.389-1.277v-0.039c0.206-0.258,0.309-0.535,0.309-0.832c0-0.104-0.052-0.154-0.154-0.154
				l-0.271,0.193c-0.129-0.078-0.206-0.115-0.232-0.115c-0.193,0-0.388,0.07-0.581,0.213c-0.194,0.141-0.323,0.213-0.388,0.213
				l-0.311-0.039l-0.875,0.213l-0.271-0.039c-0.052,0-0.146,0.039-0.281,0.117c-0.136,0.076-0.269,0.129-0.398,0.154
				c-0.129,0.025-0.255,0.084-0.379,0.174c-0.123,0.09-0.274,0.135-0.455,0.135c-0.014,0-0.085,0.037-0.215,0.107
				c-0.129,0.07-0.259,0.115-0.388,0.135C429.714,272.557,429.649,272.575,429.649,272.586z M429.419,279.963l-0.446,0.271
				l-0.349-0.039c-0.052,0.025-0.191,0.125-0.418,0.301c-0.226,0.174-0.365,0.26-0.417,0.26h-0.368
				c-0.401,0.504-0.653,0.77-0.757,0.795c-0.284,0.076-0.494,0.225-0.629,0.445c-0.136,0.219-0.229,0.328-0.281,0.328l-0.271-0.115
				c-0.024,0-0.103,0.225-0.231,0.678c-0.039,0.025-0.148,0.051-0.329,0.076c-0.542,0.904-0.846,1.369-0.91,1.395h-0.194
				c-0.038,0-0.09,0.051-0.154,0.154c0,0.697-0.148,1.33-0.445,1.898c0.077,0.504,0.155,0.756,0.232,0.756
				c0.116-0.078,0.22-0.123,0.31-0.137c0.091-0.014,0.281-0.078,0.571-0.193c0.291-0.115,0.468-0.182,0.532-0.193
				c0.064-0.014,0.22-0.129,0.465-0.35c0.246-0.219,0.491-0.377,0.735-0.473c0.246-0.098,0.458-0.27,0.639-0.514l0.408-0.311
				c-0.013-0.193,0.266-0.457,0.834-0.793l0.428-0.484l0.213-0.387l0.232-0.117l0.116-0.328c0.039-0.025,0.106-0.053,0.204-0.078
				c0.097-0.025,0.193-0.139,0.292-0.338c0.097-0.201,0.313-0.564,0.649-1.094c0.154-0.092,0.419-0.498,0.793-1.221l0.137-0.115
				c0.154-0.143,0.231-0.252,0.231-0.33s-0.038-0.115-0.115-0.115c-0.078,0-0.353,0.045-0.824,0.135
				C429.83,279.821,429.535,279.899,429.419,279.963z"/>
			<path fill="#D68500" d="M454.254,269.606l0.309-0.271c0.192,0,0.309-0.088,0.347-0.262c0.039-0.174,0.178-0.313,0.416-0.416
				c0.237-0.104,0.46-0.313,0.666-0.629c0.205-0.316,0.417-0.475,0.637-0.475c0.077,0,0.167,0.064,0.27,0.193
				c0.104,0.129,0.154,0.232,0.154,0.311c0,0.426-0.129,0.863-0.387,1.316l-0.077,0.541l-0.136,0.252
				c-0.193,0.104-0.319,0.213-0.377,0.33c-0.058,0.115-0.21,0.258-0.455,0.426l-0.193,0.27c-0.284,0.092-0.475,0.24-0.571,0.445
				c-0.097,0.207-0.231,0.324-0.406,0.35c-0.174,0.025-0.364,0.154-0.57,0.387c-0.13,0.064-0.284,0.123-0.466,0.174l-0.038,0.193
				c-0.13,0.131-0.333,0.232-0.61,0.311s-0.483,0.152-0.619,0.223s-0.229,0.105-0.28,0.105c-0.245,0-0.472-0.047-0.678-0.145
				c-0.206-0.096-0.419-0.158-0.639-0.184c-0.077-0.078-0.122-0.162-0.136-0.252c-0.012-0.09-0.076-0.209-0.193-0.357
				c-0.116-0.148-0.174-0.352-0.174-0.609l0.077-0.369c0-0.051-0.032-0.115-0.097-0.193s-0.096-0.143-0.096-0.193
				s0.012-0.09,0.038-0.117c0.025-0.025,0.038-0.064,0.038-0.115c0-0.064-0.013-0.135-0.038-0.213
				c-0.026-0.078-0.038-0.143-0.038-0.193l0.115-0.949c0-0.078-0.025-0.115-0.077-0.115s-0.146,0.064-0.281,0.193
				c-0.135,0.129-0.293,0.193-0.474,0.193c-0.104,0.076-0.188,0.238-0.253,0.484c-0.103,0.129-0.231,0.244-0.387,0.348l-0.077,0.117
				c-0.026,0.09-0.123,0.164-0.291,0.223c-0.168,0.057-0.283,0.131-0.349,0.223l-0.192,0.193l-0.368-0.039
				c-0.026,0.025-0.098,0.139-0.214,0.338c-0.116,0.201-0.265,0.365-0.445,0.494l-1.472,1.201c-0.155,0.104-0.381,0.232-0.678,0.387
				l-0.116,0.115c-1.033,0.686-1.762,1.027-2.188,1.027c-0.35,0-0.756-0.098-1.221-0.291s-0.716-0.426-0.755-0.697l-0.193-0.793
				c-0.116-0.182-0.174-0.432-0.174-0.756c0-0.154,0.012-0.258,0.038-0.309v-0.117l-0.038-0.639c0-0.154,0.122-0.232,0.367-0.232
				l-0.039-0.523c0-0.051,0.113-0.254,0.34-0.609c0.226-0.355,0.377-0.559,0.454-0.609l0.194-0.252
				c-0.014-0.154,0.077-0.32,0.271-0.494c0.194-0.174,0.35-0.352,0.466-0.531c0.116-0.182,0.336-0.381,0.659-0.602l0.581-0.58
				c0.453-0.451,0.943-0.813,1.474-1.084c0.078-0.025,0.235-0.154,0.475-0.387s0.511-0.404,0.814-0.514s0.601-0.248,0.892-0.416
				c0.29-0.168,0.521-0.252,0.688-0.252h0.154c0.052,0,0.395-0.162,1.027-0.484h0.117c0.051,0,0.174,0.053,0.368,0.154h0.039
				l0.31-0.154c0.052-0.025,0.116-0.039,0.193-0.039c0.802,0,1.241,0.555,1.319,1.666c0.025,0.232,0.09,0.348,0.193,0.348
				c0.129,0,0.313-0.234,0.552-0.707c0.239-0.471,0.746-0.705,1.521-0.705c0.556,0,0.833,0.354,0.833,1.064
				c0,0.838-0.374,1.633-1.123,2.381c-0.052,0.104-0.09,0.219-0.116,0.35l-0.271,0.793v0.039c0,0.076-0.055,0.184-0.165,0.318
				c-0.11,0.137-0.165,0.256-0.165,0.359l0.04,0.484l-0.078,0.541c0,0.246,0.045,0.406,0.136,0.484
				c0.411-0.104,0.71-0.273,0.897-0.514c0.187-0.238,0.318-0.371,0.396-0.396l0.193-0.078
				C453.964,269.895,454.1,269.735,454.254,269.606z M447.824,269.606c0.052-0.285,0.21-0.502,0.475-0.65
				c0.265-0.146,0.423-0.299,0.475-0.455c0.245-0.18,0.597-0.502,1.055-0.967c0.459-0.465,0.688-0.748,0.688-0.852
				c0-0.039-0.025-0.059-0.077-0.059H450.4l-0.155,0.098l-0.349-0.039l-0.368,0.039l-0.271-0.137l-0.251,0.039l-0.388-0.078
				c-0.206,0-0.384,0.043-0.532,0.127s-0.433,0.178-0.853,0.281c-0.419,0.102-0.797,0.279-1.133,0.531s-0.58,0.377-0.735,0.377
				c-0.091,0.195-0.394,0.473-0.91,0.834c-0.31,0.104-0.51,0.328-0.601,0.678c-0.336,0.27-0.503,0.426-0.503,0.463l-0.136,0.33
				c-0.104,0.09-0.232,0.164-0.387,0.223c-0.156,0.059-0.246,0.193-0.271,0.406c-0.026,0.213-0.113,0.406-0.262,0.582
				c-0.148,0.174-0.223,0.313-0.223,0.416c0,0.633,0.123,0.947,0.368,0.947c0.104,0,0.319-0.066,0.648-0.203
				c0.329-0.135,0.52-0.229,0.571-0.279c0.051-0.053,0.155-0.104,0.31-0.156l0.368-0.193c0.052-0.051,0.109-0.084,0.175-0.096
				c0.063-0.014,0.128-0.055,0.193-0.127c0.064-0.07,0.181-0.148,0.349-0.232c0.167-0.084,0.297-0.195,0.387-0.338
				c0.22-0.129,0.575-0.33,1.065-0.602l0.406-0.309c0.284-0.129,0.458-0.238,0.523-0.33
				C447.502,269.786,447.631,269.696,447.824,269.606z"/>
			<path fill="#D68500" d="M461.815,273.458l0.367,0.271c0.182,0.104,0.271,0.328,0.271,0.678c0,0.078-0.032,0.168-0.097,0.271
				s-0.123,0.213-0.175,0.328c-0.451,0.891-0.98,1.336-1.587,1.336c-0.193,0-0.497-0.174-0.91-0.521
				c-0.413-0.35-0.675-0.666-0.784-0.949c-0.11-0.283-0.2-0.465-0.271-0.543c-0.07-0.076-0.106-0.141-0.106-0.193
				c0-0.143,0.055-0.297,0.165-0.465c0.109-0.168,0.189-0.377,0.242-0.629c0.051-0.252,0.19-0.439,0.416-0.561
				c0.226-0.123,0.391-0.242,0.494-0.359c0.103-0.115,0.238-0.174,0.406-0.174c0.103,0,0.206,0.045,0.31,0.135
				c0.104,0.092,0.248,0.184,0.436,0.281s0.378,0.307,0.571,0.629L461.815,273.458z"/>
			<path fill="#D68500" d="M471.535,273.458l0.367,0.271c0.181,0.104,0.271,0.328,0.271,0.678c0,0.078-0.032,0.168-0.097,0.271
				c-0.065,0.104-0.123,0.213-0.175,0.328c-0.452,0.891-0.98,1.336-1.587,1.336c-0.194,0-0.497-0.174-0.911-0.521
				c-0.412-0.35-0.675-0.666-0.784-0.949c-0.108-0.283-0.199-0.465-0.271-0.543c-0.07-0.076-0.106-0.141-0.106-0.193
				c0-0.143,0.055-0.297,0.165-0.465c0.109-0.168,0.19-0.377,0.241-0.629c0.052-0.252,0.19-0.439,0.417-0.561
				c0.226-0.123,0.39-0.242,0.493-0.359c0.104-0.115,0.238-0.174,0.407-0.174c0.103,0,0.206,0.045,0.31,0.135
				c0.104,0.092,0.248,0.184,0.436,0.281c0.187,0.098,0.377,0.307,0.57,0.629L471.535,273.458z"/>
			<path fill="#D68500" d="M481.254,273.458l0.368,0.271c0.181,0.104,0.271,0.328,0.271,0.678c0,0.078-0.032,0.168-0.096,0.271
				c-0.065,0.104-0.124,0.213-0.175,0.328c-0.452,0.891-0.981,1.336-1.588,1.336c-0.193,0-0.497-0.174-0.909-0.521
				c-0.414-0.35-0.676-0.666-0.785-0.949s-0.2-0.465-0.271-0.543c-0.07-0.076-0.105-0.141-0.105-0.193
				c0-0.143,0.055-0.297,0.164-0.465s0.19-0.377,0.242-0.629s0.19-0.439,0.416-0.561c0.226-0.123,0.391-0.242,0.494-0.359
				c0.104-0.115,0.238-0.174,0.406-0.174c0.104,0,0.206,0.045,0.31,0.135c0.104,0.092,0.248,0.184,0.436,0.281
				s0.378,0.307,0.572,0.629L481.254,273.458z"/>
		</g>
		<g>
			<path fill="#001D7E" d="M59.373,230.555H43.651v-11.752h2.659v8.553h3.485v-7.957h2.649v7.957h4.279V218.5h2.649V230.555z"/>
			<path fill="#001D7E" d="M59.373,215.831H43.651v-4.789l10.724-2.875l-10.724-2.844v-4.801h15.721v2.973H46.997l12.375,3.146
				v3.082l-12.375,3.135h12.375V215.831z"/>
			<path fill="#001D7E" d="M59.373,197.344H43.651v-5.135c0-1.947,0.079-3.215,0.235-3.807c0.236-0.908,0.75-1.668,1.54-2.28
				c0.79-0.613,1.811-0.919,3.061-0.919c0.966,0,1.777,0.177,2.435,0.53c0.658,0.354,1.174,0.802,1.55,1.346
				c0.375,0.544,0.624,1.097,0.745,1.66c0.15,0.764,0.226,1.869,0.226,3.318v2.088h5.93V197.344z M46.311,194.145h4.461v-1.752
				c0-1.262-0.083-2.105-0.247-2.531c-0.165-0.424-0.422-0.758-0.772-0.998c-0.35-0.242-0.758-0.363-1.223-0.363
				c-0.571,0-1.043,0.17-1.416,0.508c-0.372,0.34-0.604,0.768-0.696,1.287c-0.072,0.383-0.108,1.15-0.108,2.303V194.145z"/>
			<path fill="#001D7E" d="M59.373,182.565H43.651v-6.735c0-1.693,0.141-2.924,0.424-3.692c0.282-0.768,0.785-1.382,1.506-1.843
				c0.723-0.461,1.548-0.691,2.477-0.691c1.18,0,2.154,0.349,2.922,1.048s1.253,1.744,1.453,3.135c0.4-0.692,0.84-1.263,1.319-1.714
				c0.479-0.45,1.33-1.057,2.552-1.821l3.067-1.935v3.827l-3.421,2.313c-1.223,0.822-1.993,1.384-2.311,1.687
				c-0.318,0.303-0.536,0.624-0.654,0.962s-0.177,0.875-0.177,1.611v0.648h6.563V182.565z M50.3,179.365v-2.367
				c0-1.536-0.064-2.494-0.193-2.876c-0.129-0.382-0.35-0.681-0.665-0.897c-0.315-0.216-0.708-0.324-1.18-0.324
				c-0.529,0-0.956,0.143-1.282,0.427c-0.325,0.285-0.53,0.687-0.616,1.206c-0.036,0.259-0.054,1.038-0.054,2.335v2.497H50.3z"/>
			<path fill="#001D7E" d="M59.373,166.587H43.651v-11.751h2.659v8.552h3.485v-7.957h2.649v7.957h4.279v-8.854h2.649V166.587z"/>
			<path fill="#001D7E" d="M54.257,152.63l-0.3-3.114c1.037-0.188,1.798-0.567,2.284-1.141c0.486-0.573,0.729-1.346,0.729-2.319
				c0-1.031-0.216-1.807-0.648-2.33c-0.433-0.523-0.938-0.784-1.518-0.784c-0.372,0-0.688,0.11-0.949,0.33
				c-0.261,0.22-0.488,0.604-0.681,1.151c-0.129,0.375-0.358,1.229-0.687,2.562c-0.422,1.715-0.94,2.919-1.555,3.611
				c-0.865,0.973-1.92,1.459-3.164,1.459c-0.8,0-1.549-0.229-2.247-0.687c-0.697-0.458-1.228-1.117-1.593-1.979
				c-0.364-0.861-0.546-1.901-0.546-3.119c0-1.989,0.432-3.487,1.298-4.492c0.865-1.005,2.019-1.533,3.463-1.583l0.139,3.2
				c-0.808,0.137-1.388,0.431-1.743,0.881c-0.354,0.45-0.531,1.126-0.531,2.027c0,0.93,0.189,1.658,0.569,2.184
				c0.243,0.339,0.568,0.508,0.976,0.508c0.372,0,0.69-0.158,0.955-0.476c0.336-0.404,0.687-1.384,1.051-2.941
				c0.365-1.556,0.742-2.708,1.131-3.454c0.39-0.746,0.922-1.33,1.598-1.751c0.675-0.421,1.51-0.632,2.504-0.632
				c0.901,0,1.745,0.252,2.531,0.757c0.787,0.504,1.371,1.218,1.753,2.141c0.382,0.922,0.574,2.072,0.574,3.449
				c0,2.003-0.459,3.542-1.378,4.616C57.355,151.78,56.016,152.421,54.257,152.63z"/>
			<path fill="#001D7E" d="M59.373,122.76v3.481l-3.571,1.384v6.335l3.571,1.308v3.395l-15.721-6.173v-3.384L59.373,122.76z
				 M53.152,128.651l-5.833,2.184l5.833,2.14V128.651z"/>
			<path fill="#001D7E" d="M54.257,121.873l-0.3-3.114c1.037-0.187,1.798-0.567,2.284-1.141c0.486-0.573,0.729-1.346,0.729-2.319
				c0-1.03-0.216-1.807-0.648-2.33s-0.938-0.784-1.518-0.784c-0.372,0-0.688,0.11-0.949,0.33c-0.261,0.22-0.488,0.604-0.681,1.151
				c-0.129,0.375-0.358,1.229-0.687,2.563c-0.422,1.715-0.94,2.918-1.555,3.611c-0.865,0.973-1.92,1.459-3.164,1.459
				c-0.8,0-1.549-0.229-2.247-0.687c-0.697-0.458-1.228-1.117-1.593-1.978c-0.364-0.861-0.546-1.901-0.546-3.119
				c0-1.989,0.432-3.486,1.298-4.492c0.865-1.006,2.019-1.533,3.463-1.584l0.139,3.2c-0.808,0.137-1.388,0.431-1.743,0.881
				c-0.354,0.451-0.531,1.126-0.531,2.027c0,0.93,0.189,1.657,0.569,2.184c0.243,0.339,0.568,0.508,0.976,0.508
				c0.372,0,0.69-0.158,0.955-0.476c0.336-0.403,0.687-1.384,1.051-2.94c0.365-1.557,0.742-2.708,1.131-3.454
				c0.39-0.746,0.922-1.33,1.598-1.751c0.675-0.421,1.51-0.632,2.504-0.632c0.901,0,1.745,0.252,2.531,0.757
				c0.787,0.505,1.371,1.218,1.753,2.141s0.574,2.072,0.574,3.449c0,2.003-0.459,3.542-1.378,4.616
				C57.355,121.022,56.016,121.664,54.257,121.873z"/>
		</g>
	</g>
	<g>
		<g>
			<path fill="#FFFFFF" d="M457.401,207.322c0.401,0,2.2-0.783,1.254-0.783C458.254,206.539,456.455,207.322,457.401,207.322
				L457.401,207.322z"/>
		</g>
	</g>
</g>
</svg>
