<?xml version="1.0" encoding="iso-8859-1"?>
<!-- Generator: Adobe Illustrator 19.0.0, SVG Export Plug-In . SVG Version: 6.00 Build 0)  -->
<svg xmlns="http://www.w3.org/2000/svg" xmlns:xlink="http://www.w3.org/1999/xlink" version="1.1" id="Capa_1" x="0px" y="0px" viewBox="0 0 512 512" style="enable-background:new 0 0 512 512;" xml:space="preserve" width="64px" height="64px">
<g>
	<g>
		<path d="M91,151c-33.091,0-60,26.909-60,60s26.909,60,60,60s60-26.909,60-60S124.091,151,91,151z" fill="#d59541"/>
	</g>
</g>
<g>
	<g>
		<path d="M256,91c-41.353,0-75,33.647-75,75c0,41.353,33.647,75,75,75c41.353,0,75-33.647,75-75C331,124.647,297.353,91,256,91z" fill="#d59541"/>
	</g>
</g>
<g>
	<g>
		<path d="M421,151c-33.091,0-60,26.909-60,60s26.909,60,60,60s60-26.909,60-60S454.091,151,421,151z" fill="#d59541"/>
	</g>
</g>
<g>
	<g>
		<path d="M329.251,241c-18.939,18.499-44.753,30-73.251,30c-28.498,0-54.313-11.501-73.251-30C163.217,260.08,151,286.608,151,316    v90c0,8.291,6.709,15,15,15h180c8.291,0,15-6.709,15-15v-90C361,286.608,348.783,260.08,329.251,241z" fill="#d59541"/>
	</g>
</g>
<g>
	<g>
		<path d="M487.592,271c-16.485,18.279-40.096,30-66.592,30c-11.314,0-22.04-2.331-32.023-6.158    C390.165,301.776,391,308.802,391,316v90c0,5.284-1.082,10.285-2.763,15H497c8.291,0,15-6.709,15-15v-75    C512,307.866,501.984,286.959,487.592,271z" fill="#d59541"/>
	</g>
</g>
<g>
	<g>
		<path d="M121,406v-90c0-7.198,0.835-14.224,2.023-21.158C113.04,298.669,102.312,301,91,301c-26.495,0-50.107-11.721-66.592-30    C10.016,286.959,0,307.866,0,331v75c0,8.291,6.709,15,15,15h108.763C122.082,416.285,121,411.284,121,406z" fill="#d59541"/>
	</g>
</g>
<g>
</g>
<g>
</g>
<g>
</g>
<g>
</g>
<g>
</g>
<g>
</g>
<g>
</g>
<g>
</g>
<g>
</g>
<g>
</g>
<g>
</g>
<g>
</g>
<g>
</g>
<g>
</g>
<g>
</g>
</svg>
